<svg width="63" height="55" viewBox="0 0 63 55" fill="none" xmlns="http://www.w3.org/2000/svg">
<path d="M39.8627 52.9904C39.4998 53.405 39.0302 53.7927 38.5874 54.15C35.7269 51.1938 32.3686 47.9174 29.1764 47.9174C27.1974 47.9174 25.772 49.4239 24.109 50.4868C21.8012 51.9619 18.6357 52.7926 15.9229 51.71C14.4638 51.156 13.0502 50.34 11.9937 49.0143C14.1288 50.4868 17.3262 50.6847 19.7366 49.6848C22.4009 48.5795 25.1126 47.1117 28.149 47.1117C32.6248 47.1117 36.8786 50.1393 39.8627 52.9904ZM6.78216 43.6924C9.74554 47.0657 14.5788 45.9804 18.5347 46.8229C19.0853 46.9402 19.6026 47.1231 20.1936 47.0323C19.7233 46.7341 19.0999 46.7005 18.5566 46.4958C15.4872 45.3395 15.0087 42.0545 13.3289 39.7936C15.4744 41.22 17.2519 43.1728 19.2583 45.0079C20.6547 46.2851 22.3944 46.8316 24.1986 47.1987C23.7651 47.3572 23.1979 47.3198 22.731 47.4356C19.4901 48.2396 15.8968 49.5087 12.4482 48.3707C10.2227 47.6363 7.90673 45.897 6.78216 43.6924ZM2.03201 35.8851C3.88047 40.0701 8.52458 40.3978 11.6125 42.9652C12.1996 43.4534 12.7816 43.9026 13.4266 44.2035L13.4599 44.1698C12.7474 43.525 11.9763 42.7567 11.4243 41.9547C9.65945 39.3904 10.2468 35.8852 8.88599 33.1664C10.1223 34.6468 11.2819 36.1712 11.9938 37.8661C13.1394 40.5937 13.5286 43.7053 16.098 45.7779C13.3171 44.8605 10.1092 45.0431 7.60507 43.4029C4.97287 41.6789 2.53339 38.9577 2.03201 35.8851ZM0.051954 27.4181C0.319216 31.1053 4.2447 33.0749 6.11646 36.1058C6.51623 36.7531 6.92761 37.4214 7.50815 37.9441C7.41766 37.5516 7.09465 37.2038 6.91685 36.8186C6.3165 35.5181 6.04479 34.0131 6.19464 32.4656C6.37695 30.5828 7.16187 28.8345 6.86062 26.8537C8.47398 30.3361 7.95355 34.6895 8.88599 38.4549C9.09227 39.2879 9.59953 40.0168 9.9121 40.8057C8.32693 39.5998 6.24956 38.5294 4.50958 37.158C2.82686 35.8316 1.36626 34.277 0.607036 32.2542C0.0599617 30.7966 -0.0823061 29.0579 0.051954 27.4181ZM0.161599 20.6246C0.350963 19.8017 0.495854 18.95 0.853881 18.195C0.176008 21.6732 2.48991 24.1857 3.27993 27.1949C3.57765 28.329 3.6795 29.5339 4.13808 30.592C4.18088 30.6149 4.21794 30.5705 4.24437 30.5362C3.10274 27.3337 4.77626 24.3739 6.40652 21.8496C6.83504 21.186 7.04131 20.4134 7.24144 19.6323C7.41766 21.0821 7.1091 22.7603 6.8409 24.2563C6.49562 26.1824 5.83731 27.9875 5.31411 29.8457C4.96965 31.0067 5.06042 32.3168 5.23719 33.5331L5.07105 33.4006C3.85725 31.1598 1.46255 29.4093 0.73934 26.9638C0.161333 25.0092 -0.238523 22.7511 0.161599 20.6246ZM1.44183 16.8831C1.44183 14.251 2.46668 12.1038 4.00396 10.1436C4.04857 10.1214 4.08032 10.0766 4.13794 10.0871C2.44556 12.6614 3.98593 15.911 3.76845 18.831L3.54524 21.8278C3.57838 21.8496 3.57838 21.9395 3.65698 21.9051C3.75698 21.571 3.78732 21.2156 3.8455 20.8706C4.25292 18.4546 6.37441 16.773 8.17357 15.0673C8.59915 14.6639 8.91075 14.1868 9.11144 13.6741C8.96179 14.8776 8.62609 16.1112 8.08589 17.2049C6.70103 20.0085 4.02634 22.2717 3.54524 25.4578C3.31196 22.4042 1.44183 20.1342 1.44183 16.8831ZM5.90276 8.00428C6.75377 7.06075 7.70758 6.32574 8.84306 6.03499C6.63811 7.55115 6.75784 10.2608 6.08276 12.5265C5.83591 13.3549 5.47313 14.131 5.28027 14.9872L5.33607 15.0318C5.70291 14.0639 6.33232 13.1335 7.15236 12.3598C8.70324 10.8965 11.0349 10.0109 11.8022 7.87057C11.7671 10.8449 9.23188 13.1058 6.91628 14.8549C5.87771 15.6394 4.99511 16.6927 4.45653 17.7969C4.54652 16.9751 4.58739 16.2914 4.51401 15.4893C4.27633 12.8911 4.12219 9.97841 5.90276 8.00428ZM14.8523 3.00378C13.2159 4.43967 12.124 6.28785 10.8669 7.94931C9.82134 9.33118 8.38671 10.1874 7.15292 11.3469C7.81891 9.96517 7.94187 8.38189 8.78767 7.04515C10.234 4.75937 12.6243 3.87214 14.8523 3.00378Z" fill="#D69D36"/>
<path d="M22.949 52.9904C23.3119 53.405 23.7815 53.7927 24.2243 54.15C27.0848 51.1938 30.4432 47.9174 33.6353 47.9174C35.6144 47.9174 37.0398 49.4239 38.7027 50.4868C41.0105 51.9619 44.1761 52.7926 46.8888 51.71C48.3479 51.156 49.7616 50.34 50.818 49.0143C48.6829 50.4868 45.4855 50.6847 43.0751 49.6848C40.4108 48.5795 37.6991 47.1117 34.6628 47.1117C30.1869 47.1117 25.9331 50.1393 22.949 52.9904ZM56.0295 43.6924C53.0662 47.0657 48.2329 45.9804 44.277 46.8229C43.7264 46.9402 43.2091 47.1231 42.6181 47.0323C43.0884 46.7341 43.7118 46.7005 44.2551 46.4958C47.3245 45.3395 47.803 42.0545 49.4828 39.7936C47.3373 41.22 45.5598 43.1728 43.5534 45.0079C42.157 46.2851 40.4173 46.8316 38.6131 47.1987C39.0466 47.3572 39.6138 47.3198 40.0807 47.4356C43.3216 48.2396 46.9149 49.5087 50.3635 48.3707C52.589 47.6363 54.905 45.897 56.0295 43.6924ZM60.7797 35.8851C58.9313 40.0701 54.2871 40.3978 51.1993 42.9652C50.6121 43.4534 50.0301 43.9026 49.3851 44.2035L49.3518 44.1698C50.0643 43.525 50.8355 42.7567 51.3874 41.9547C53.1523 39.3904 52.5649 35.8852 53.9257 33.1664C52.6894 34.6468 51.5298 36.1712 50.8179 37.8661C49.6723 40.5937 49.2831 43.7053 46.7137 45.7779C49.4946 44.8605 52.7025 45.0431 55.2067 43.4029C57.8389 41.6789 60.2783 38.9577 60.7797 35.8851ZM62.7598 27.4181C62.4925 31.1053 58.567 33.0749 56.6953 36.1058C56.2955 36.7531 55.8841 37.4214 55.3036 37.9441C55.3941 37.5516 55.7171 37.2038 55.8949 36.8186C56.4952 35.5181 56.7669 34.0131 56.6171 32.4656C56.4348 30.5828 55.6498 28.8345 55.9511 26.8537C54.3377 30.3361 54.8582 34.6895 53.9257 38.4549C53.7194 39.2879 53.2122 40.0168 52.8996 40.8057C54.4848 39.5998 56.5621 38.5294 58.3021 37.158C59.9848 35.8316 61.4455 34.277 62.2047 32.2542C62.7518 30.7966 62.894 29.0579 62.7598 27.4181ZM62.6501 20.6246C62.4608 19.8017 62.3159 18.95 61.9578 18.195C62.6357 21.6732 60.3218 24.1857 59.5318 27.1949C59.2341 28.329 59.1322 29.5339 58.6736 30.592C58.6308 30.6149 58.5938 30.5705 58.5674 30.5362C59.709 27.3337 58.0355 24.3739 56.4052 21.8496C55.9767 21.186 55.7704 20.4134 55.5703 19.6323C55.3941 21.0821 55.7026 22.7603 55.9708 24.2563C56.3161 26.1824 56.9744 27.9875 57.4976 29.8457C57.8421 31.0067 57.7513 32.3168 57.5745 33.5331L57.7407 33.4006C58.9545 31.1598 61.3492 29.4093 62.0724 26.9638C62.6504 25.0092 63.0502 22.7511 62.6501 20.6246ZM61.3699 16.8831C61.3699 14.251 60.345 12.1038 58.8078 10.1436C58.7631 10.1214 58.7314 10.0766 58.6738 10.0871C60.3662 12.6614 58.8258 15.911 59.0433 18.831L59.2665 21.8278C59.2333 21.8496 59.2333 21.9395 59.1547 21.9051C59.0547 21.571 59.0244 21.2156 58.9662 20.8706C58.5588 18.4546 56.4373 16.773 54.6381 15.0673C54.2126 14.6639 53.901 14.1868 53.7003 13.6741C53.8499 14.8776 54.1856 16.1112 54.7258 17.2049C56.1107 20.0085 58.7854 22.2717 59.2665 25.4578C59.4998 22.4042 61.3699 20.1342 61.3699 16.8831ZM56.909 8.00428C56.0579 7.06075 55.1041 6.32574 53.9687 6.03499C56.1736 7.55115 56.0539 10.2608 56.729 12.5265C56.9758 13.3549 57.3386 14.131 57.5314 14.9872L57.4756 15.0318C57.1088 14.0639 56.4794 13.1335 55.6594 12.3598C54.1085 10.8965 51.7769 10.0109 51.0095 7.87057C51.0446 10.8449 53.5798 13.1058 55.8954 14.8549C56.934 15.6394 57.8166 16.6927 58.3552 17.7969C58.2652 16.9751 58.2243 16.2914 58.2977 15.4893C58.5354 12.8911 58.6895 9.97841 56.909 8.00428ZM47.9594 3.00378C49.5958 4.43967 50.6877 6.28785 51.9448 7.94931C52.9904 9.33118 54.425 10.1874 55.6588 11.3469C54.9928 9.96517 54.8699 8.38189 54.024 7.04515C52.5777 4.75937 50.1874 3.87214 47.9594 3.00378Z" fill="#D69D36"/>
<path d="M51.3929 32.7344L50.9096 32.4707C49.8848 34.584 48.5279 36.5072 46.9048 38.1706L44.0811 35.3469C45.4644 33.9214 46.5798 32.3034 47.4015 30.5546L46.9204 30.2916C46.1081 32.0257 45.0152 33.6034 43.6972 34.9628L41.1393 32.4049C42.2374 31.2634 43.1087 29.9609 43.7376 28.5533L43.2603 28.2928C42.6444 29.6801 41.7947 30.9416 40.7565 32.0229L37.9298 29.1961C38.7159 28.3631 39.3228 27.4046 39.7359 26.3673L39.2584 26.1068C38.8637 27.1183 38.2803 28.0365 37.5494 28.8153L34.9837 26.2501C35.7146 25.4344 36.1385 24.4111 36.1985 23.3178H39.8301C39.7993 24.299 39.5982 25.2377 39.2585 26.107L39.7359 26.3675C40.1181 25.4064 40.334 24.3785 40.3648 23.3177H44.3682C44.3322 25.0851 43.9381 26.7658 43.2601 28.2929L43.7375 28.5534C44.4654 26.9231 44.8677 25.1515 44.9033 23.3175H48.5281C48.49 25.8065 47.9158 28.1666 46.9201 30.2916L47.4013 30.5546C48.4538 28.315 49.0258 25.8601 49.0635 23.3175H53.0666C53.0267 26.5939 52.2548 29.696 50.9094 32.4707L51.3929 32.7343C52.8403 29.7533 53.6086 26.4612 53.6086 23.0499C53.6086 20.1488 53.0528 17.3344 51.9968 14.7235L51.5007 14.9367C52.4953 17.4005 53.0344 20.0502 53.0676 22.7822H49.0639C49.0315 20.6027 48.6032 18.4891 47.8197 16.5189L47.3273 16.7299C48.0831 18.6346 48.4968 20.6765 48.5287 22.7823H44.9036C44.8727 21.1772 44.5596 19.6197 43.9947 18.1626L43.5023 18.3741C44.0396 19.7647 44.3376 21.2509 44.3689 22.7823H40.3651C40.3368 21.8036 40.1514 20.8519 39.8227 19.9555L39.3304 20.1667C39.6324 20.997 39.8021 21.877 39.8304 22.7822H36.1988C36.1388 21.6888 35.7149 20.6656 34.984 19.85L37.5523 17.2821C38.3454 18.1256 38.9452 19.1051 39.3305 20.1668L39.8228 19.9556C39.4105 18.8326 38.7723 17.7964 37.9302 16.9038L40.7612 14.0731C41.9692 15.3305 42.8913 16.7904 43.5024 18.3741L43.9948 18.1626C43.3567 16.5176 42.3963 15.0008 41.1395 13.6948L43.7028 11.1311C45.2903 12.7683 46.5099 14.6681 47.3273 16.73L47.8197 16.519C46.9752 14.3955 45.7173 12.4389 44.0812 10.7533L46.9118 7.92222C48.9137 9.97301 50.4579 12.3527 51.5006 14.9368L51.9967 14.7236C50.8948 11.9969 49.2476 9.49251 47.1054 7.35038C44.9553 5.20004 42.4398 3.54912 39.7013 2.44707L39.5041 2.94922C42.0939 3.99237 44.4788 5.53836 46.5333 7.54401L43.7028 10.375C42.0456 8.76906 40.1258 7.52421 38.0416 6.68083L37.8463 7.17866C39.8616 7.99631 41.7193 9.20035 43.3246 10.7575L40.7614 13.3208C39.5154 12.1221 38.0785 11.1912 36.521 10.5539L36.3253 11.0518C37.8156 11.6625 39.1901 12.5533 40.3832 13.6992L37.5526 16.5298C36.7564 15.7793 35.846 15.1903 34.8622 14.7795L34.6664 15.2777C35.5832 15.6619 36.431 16.2101 37.1743 16.9083L34.6065 19.4762C33.7903 18.7451 32.7673 18.3214 31.6736 18.2617V14.6302C32.7173 14.6623 33.7278 14.884 34.6664 15.2778L34.8622 14.7795C33.862 14.3616 32.785 14.1276 31.6737 14.095V10.0915C33.2947 10.124 34.8653 10.4535 36.3254 11.0519L36.5211 10.554C34.9995 9.93143 33.3624 9.58935 31.6736 9.55679V5.92999C33.8232 5.96276 35.9076 6.39149 37.8461 7.17741L38.0415 6.67958C36.0412 5.86929 33.8916 5.42795 31.6734 5.39508V1.39119C34.4003 1.42417 37.0451 1.9616 39.5043 2.95185L39.7016 2.4497C37.0995 1.40204 34.2956 0.849976 31.4063 0.849976C27.8367 0.849976 24.464 1.70165 21.4732 3.20456L21.7171 3.67152C24.6113 2.22134 27.8133 1.43131 31.1389 1.39117V5.39519C28.4267 5.43552 25.864 6.09363 23.5785 7.22853L23.8216 7.69422C26.0733 6.57954 28.5588 5.96893 31.1388 5.92959V9.5549C29.1221 9.5946 27.2139 10.0796 25.506 10.9132L25.7506 11.381C27.4132 10.5739 29.2414 10.1279 31.1389 10.0897V14.0936C29.8807 14.1307 28.6873 14.4288 27.6098 14.9344L27.8556 15.404C28.875 14.9302 29.987 14.6639 31.1389 14.6283V18.2603C30.5755 18.2916 30.0382 18.4202 29.5429 18.6291L29.7884 19.0984C30.295 18.891 30.8423 18.7818 31.4063 18.7818C32.547 18.7818 33.6193 19.2259 34.426 20.0324C35.2327 20.8391 35.6768 21.9117 35.6768 23.0526C35.6768 25.4073 33.7614 27.3236 31.4063 27.3236C30.2653 27.3236 29.1928 26.8792 28.3862 26.0726C27.5796 25.2656 27.1353 24.1933 27.1353 23.0525C27.1353 21.9117 27.5796 20.839 28.3862 20.0324C28.7942 19.6245 29.2701 19.3105 29.7883 19.0983L29.5428 18.629C29.0506 18.8368 28.6003 19.1241 28.2077 19.4757L25.6383 16.9064C26.3021 16.2826 27.0496 15.7783 27.8554 15.4038L27.6095 14.9342C26.7429 15.341 25.9514 15.8816 25.2626 16.531L22.4291 13.6973C23.4227 12.7428 24.5434 11.9672 25.7504 11.3808L25.5058 10.913C24.2311 11.535 23.0674 12.3503 22.0554 13.3233L19.4875 10.7557C20.7836 9.49818 22.2462 8.47359 23.8214 7.69407L23.5782 7.22838C21.9293 8.0474 20.4234 9.11331 19.1148 10.3832L16.2783 7.5466C17.9044 5.95913 19.7392 4.66268 21.7169 3.67151L21.4729 3.20455C17.15 5.37699 13.6305 8.91729 11.4875 13.2573L11.9526 13.5083C12.9521 11.4756 14.274 9.59094 15.9001 7.92466L18.7369 10.7614C17.4173 12.1209 16.3148 13.6916 15.4845 15.417L15.9478 15.6672C16.7387 14.015 17.7991 12.4848 19.109 11.1339L21.677 13.7017C20.642 14.7784 19.7856 16.0267 19.1508 17.398L19.6152 17.6486C20.2132 16.3451 21.0302 15.138 22.0509 14.0755L24.8845 16.9092C24.1602 17.6776 23.5702 18.5737 23.1515 19.5597L23.6197 19.8129C24.0045 18.8881 24.5561 18.0329 25.2597 17.2845L27.829 19.8536C27.1237 20.642 26.6758 21.6613 26.6137 22.7846H22.9812C23.0135 21.749 23.2318 20.7454 23.6197 19.8127L23.1515 19.5595C22.7284 20.5555 22.4803 21.6436 22.4464 22.7846H18.4431C18.4791 20.9829 18.8831 19.2432 19.6151 17.6483L19.1506 17.3977C18.3889 19.0424 17.9462 20.8645 17.9088 22.7847H14.2829C14.3209 20.281 14.8953 17.8656 15.9479 15.6669L15.4845 15.4167C14.4075 17.6531 13.7882 20.1495 13.7488 22.7847H9.74465C9.78404 19.5148 10.5481 16.364 11.9524 13.5082L11.4872 13.2572C10.0275 16.2139 9.20337 19.5379 9.20337 23.0522C9.20337 25.2019 9.51037 27.3029 10.0968 29.3099L10.6212 29.178C10.0698 27.2972 9.76893 25.3312 9.74468 23.3199H13.7482C13.7728 24.997 14.0312 26.6356 14.5055 28.2L15.0247 28.0692C14.5603 26.5472 14.308 24.9522 14.2829 23.3199H17.908C17.9342 24.6494 18.1535 25.9467 18.5483 27.1813L19.0683 27.0502C18.6834 25.8583 18.4692 24.6046 18.4432 23.3199H22.4465C22.4745 24.2707 22.6503 25.1959 22.9617 26.0699L23.482 25.9385C23.1802 25.1074 23.0095 24.226 22.9812 23.32H26.6133C26.6732 24.4133 27.0968 25.4367 27.8277 26.2523L25.2597 28.8204C24.4675 27.9772 23.8677 26.9991 23.4819 25.9385L22.9616 26.0699C23.3725 27.2223 24.0202 28.2857 24.8814 29.1985L22.0508 32.0293C20.6739 30.5958 19.6662 28.897 19.0694 27.0512L18.5494 27.1824C19.1691 29.1206 20.2259 30.9035 21.6738 32.4084L19.1101 34.9722C17.193 32.9953 15.8083 30.6369 15.0259 28.07L14.5068 28.2008C15.313 30.8599 16.7455 33.3038 18.7317 35.3503L15.901 38.1811C13.3957 35.6141 11.6063 32.5331 10.6225 29.179L10.0981 29.3109C11.13 32.8421 13.0338 36.079 15.7078 38.7525C17.5186 40.5638 19.5884 42.0216 21.8322 43.0959L22.098 42.6247C19.9743 41.6126 18.0099 40.2488 16.2793 38.5591L19.1099 35.7286C20.5811 37.1566 22.2587 38.2953 24.0726 39.1248L24.3368 38.6562C22.5642 37.8518 20.9248 36.7429 19.4885 35.3505L22.052 32.7869C23.2534 33.9428 24.6329 34.8489 26.1267 35.4836L26.3906 35.0159C24.9397 34.4069 23.5978 33.5312 22.4311 32.4103L25.2621 29.5795C26.1717 30.4377 27.2307 31.084 28.3786 31.4951L28.6462 31.0213C27.5381 30.6377 26.5162 30.0241 25.6404 29.2014L28.2084 26.6331C29.0241 27.3646 30.0469 27.7881 31.1407 27.8481V31.4801C30.2793 31.4534 29.4405 31.2961 28.6462 31.0216L28.3786 31.4954C29.2562 31.8101 30.185 31.9867 31.1408 32.0148V36.0179C29.4842 35.9848 27.8791 35.6418 26.3919 35.0179L26.1279 35.4856C27.6963 36.1522 29.3903 36.5192 31.1408 36.553V40.1783C28.7553 40.1416 26.4515 39.6173 24.338 38.6582L24.0738 39.1268C26.2678 40.1293 28.662 40.6762 31.1408 40.7133V44.7162C27.961 44.678 24.8923 43.9572 22.0993 42.6266L21.8336 43.0979C24.7853 44.5108 28.039 45.2577 31.4083 45.2577C34.9427 45.2577 38.348 44.4319 41.4129 42.8811L41.1598 42.3902C38.3016 43.8377 35.0839 44.6744 31.6755 44.7163V40.7132C34.378 40.6733 36.9794 40.0255 39.3298 38.8432L39.0799 38.3588C36.8458 39.484 34.3346 40.1366 31.6756 40.178V36.5527C33.7032 36.5136 35.6547 36.0271 37.4225 35.1454L37.1741 34.6633C35.511 35.4928 33.6477 35.9774 31.6756 36.0177V32.0146C32.9669 31.9768 34.2101 31.666 35.3415 31.1122L35.0948 30.6329C34.0556 31.1401 32.8986 31.4409 31.6755 31.4796V27.8481C32.7691 27.7881 33.7921 27.3646 34.6083 26.6331L37.1736 29.1987C36.5594 29.7752 35.8592 30.2598 35.0948 30.6331L35.3415 31.1123C36.143 30.7198 36.8892 30.2071 37.5545 29.5795L40.3807 32.4059C39.4372 33.3124 38.356 34.0742 37.174 34.6634L37.4224 35.1455C38.6346 34.5411 39.7615 33.7526 40.7635 32.7889L43.3213 35.3465C42.0753 36.5549 40.645 37.5719 39.0799 38.3591L39.3298 38.8435C40.9191 38.0443 42.3945 37.0031 43.7051 35.7305L46.5288 38.5542C44.9535 40.0918 43.1422 41.3867 41.1599 42.3902L41.413 42.8811C43.4903 41.83 45.4134 40.4491 47.1078 38.7545C48.8892 36.9736 50.3265 34.9411 51.3954 32.7397L51.3929 32.7344Z" fill="#D69D36"/>
<path d="M32.6768 17.9115L32.5427 17.9169L32.5491 18.0775L32.6842 18.0711L32.6768 17.9115Z" fill="#D69D36"/>
<path d="M32.5251 17.6978H32.3462V17.8341H32.5251V17.6978Z" fill="#D69D36"/>
<path d="M32.0234 17.65L32.1807 17.6736L32.1997 17.5386L32.0424 17.5161L32.0234 17.65Z" fill="#D69D36"/>
<path d="M31.7345 17.5818L31.8909 17.6044L31.9098 17.4691L31.7535 17.4466L31.7345 17.5818Z" fill="#D69D36"/>
<path d="M30.779 17.4242H30.6001V17.5607H30.779V17.4242Z" fill="#D69D36"/>
<path d="M30.2102 17.6963L30.3664 17.7187L30.3854 17.5838L30.2292 17.5613L30.2102 17.6963Z" fill="#D69D36"/>
<path d="M30.0466 17.8565L30.2261 17.9021L30.2587 17.7698L30.0792 17.7242L30.0466 17.8565Z" fill="#D69D36"/>
<path d="M29.8835 17.9335L29.9058 18.0699L30.0384 18.0476L30.0162 17.9112L29.8835 17.9335Z" fill="#D69D36"/>
<path d="M12.3249 32.0162V32.3118H12.46L12.4368 31.9712L12.2574 31.9026V31.7891H12.1455V32.0162H12.3249Z" fill="#D69D36"/>
<path d="M13.2654 32.8346L13.601 32.9931L13.714 33.3113L13.8702 33.4259L14.0274 33.7665L13.9377 33.9251L13.6918 33.698L13.5124 33.4484L13.4226 33.2438L13.2654 32.8346Z" fill="#D69D36"/>
<path d="M18.931 39.835L19.0439 40.1306L18.8867 40.2217L18.7969 40.0856L18.5732 40.0171L18.551 39.8125L18.3716 39.5393L18.6407 39.5854L18.931 39.835Z" fill="#D69D36"/>
<path d="M30.7119 19.3793H30.4656L30.4207 18.8793L30.5551 18.788V18.5381H29.7712L29.7488 18.2883L29.8611 18.2201L29.6817 18.1519L29.5472 18.3335L29.5028 18.5381L29.2787 18.5838V18.6972H29.1221V18.9927L28.4948 19.5154L27.2408 19.4702C27.1509 19.6746 26.9268 19.4472 26.9268 19.4472C26.8824 19.3109 26.569 19.4472 26.569 19.4472C26.569 19.6975 26.1434 19.3337 26.1434 19.3337L25.3594 18.7653C24.9116 18.3562 24.2397 18.8792 24.2175 18.9927C24.2397 19.3109 23.7024 19.0609 23.7024 19.0609C23.7024 19.0609 23.2545 18.9246 23.1872 19.1065C23.1202 19.2882 22.8286 19.243 22.8286 19.243L22.7837 19.3338L22.5596 19.3793L22.5152 19.5155L22.2462 19.5612L22.918 19.5383C23.0973 19.5156 22.8506 19.9248 22.7389 19.9021L22.4257 19.9248L22.3134 20.0383H22.0223L21.888 20.2205L21.4628 20.1977C21.4628 20.1977 21.2161 20.4022 21.2388 20.4703C21.2612 20.5385 21.1939 20.7431 21.1266 20.7431C21.0594 20.7431 20.925 20.9476 20.9699 21.0158C21.0149 21.084 20.8356 21.3113 20.8356 21.3113L20.791 21.5388L20.6567 21.584V22.1979L20.3878 22.3797V22.6524L19.9844 23.0843L20.0294 23.4478L19.6937 23.8115L19.7381 24.1752L19.5366 24.2434L19.4921 24.4025L19.4026 24.8796L19.6264 24.9027C19.7381 24.857 19.7159 25.1981 19.6264 25.2433C19.5365 25.2889 19.2902 25.3797 19.4248 25.4705C19.5593 25.5618 19.0664 25.5388 19.0664 25.4024C19.0664 25.2663 18.7976 25.1525 18.7306 25.1981C18.6633 25.2433 18.5512 24.9935 18.5512 24.9935C18.305 24.7436 17.5434 25.0161 17.5434 25.0161L17.4311 25.3798C17.1851 25.4254 17.0284 25.8345 17.0284 25.8345C16.8268 25.9027 16.67 26.1525 16.7373 26.2208C16.8043 26.289 16.625 26.3116 16.625 26.3116V26.8119L16.5132 26.9709L16.5354 27.5163C16.6699 27.5163 16.6477 27.7665 16.6477 27.7665C16.4236 27.7891 16.4681 28.0848 16.4681 28.0848L15.998 28.2438L15.9085 28.38L15.3263 28.3572L15.1696 28.5165L15.0124 28.3572H13.8927L13.8482 28.2437L13.6242 28.1979L13.6016 27.9481L13.2658 27.9707L13.1987 28.1071L12.8401 28.1297C12.8625 28.3571 12.4818 28.6982 12.4374 28.6074C12.392 28.5164 12.1459 28.2661 12.258 28.2211C12.3701 28.1753 12.6614 28.1297 12.6614 28.1297V27.9707L11.8325 27.9481L11.7432 28.0846L11.4068 28.1071V28.4709L11.2503 28.5164C11.1381 28.5843 11.2724 28.8347 11.2724 28.8347C11.4292 28.9935 11.2503 29.2434 11.2503 29.2434C11.1157 29.3799 11.3619 29.6303 11.3619 29.6303C11.5414 29.6753 11.2503 29.8118 11.2503 29.8118C11.2947 30.039 11.4293 30.1073 11.4293 30.1073C11.2947 30.3345 11.5192 30.4479 11.5192 30.4479L11.5414 30.8347L11.6981 30.9258V31.1753L11.7876 31.3345H12.146L12.1236 30.7664C11.8099 30.4026 12.3921 30.3116 12.4149 30.4478C12.4375 30.5843 12.6837 30.6525 12.6837 30.6525C12.7286 30.9936 13.1094 31.1979 13.2211 30.8573C13.3332 30.5159 13.4227 30.7208 13.4899 30.8797C13.5571 31.039 13.9822 31.4255 13.9822 31.4255H14.3183L14.3634 31.7437C14.744 31.7209 14.8557 31.7669 15.0124 32.2891C15.1696 32.8116 15.5949 32.9481 15.5949 32.9481L15.9085 32.9254C15.9085 32.6531 16.2221 32.9713 16.2221 33.1078C16.2221 33.2437 16.8267 33.7665 16.8267 33.7665L17.4312 33.9027L17.9917 34.3578L18.4169 34.3123H18.5963C18.708 33.9255 19.2458 34.3347 19.2902 34.4712C19.3354 34.6076 19.6936 34.8349 19.738 34.7211C19.7831 34.6076 20.0294 34.676 20.0743 35.0165C20.119 35.3579 20.2755 35.2896 20.2755 35.2896L21.5523 35.2668L22.0001 34.88L23.1425 34.8576C23.7247 34.8349 23.3664 34.0392 23.2547 34.0392C23.0531 33.8804 23.3216 33.2211 23.3216 33.2211L21.6867 31.6983C21.3061 31.6983 21.6419 31.1526 21.6419 31.1526C21.933 30.9706 21.5745 30.6756 21.5745 30.6756C21.6196 30.4024 21.4178 30.0842 21.4178 30.0842C21.015 29.8115 21.1267 29.2885 21.1267 29.2885V28.9248C20.7909 28.6069 21.2611 28.561 21.2611 28.561C21.4177 28.2888 21.1489 28.0841 21.1489 28.0841L21.1267 27.7885L20.7682 27.7429L20.7238 26.6746L19.9176 25.5156C19.7604 25.4698 19.8725 25.1974 19.8725 25.1974C20.0741 25.0836 19.8275 24.8112 19.8275 24.8112L19.8052 24.3111L20.2753 24.2653L20.3875 24.0837H20.6114L20.5891 23.4927C20.7009 23.1972 20.9696 23.3562 20.9696 23.3562L21.2832 23.379L21.4625 23.038L21.507 22.7652L21.2609 22.7427C20.9921 22.5834 21.1265 21.9926 21.1265 21.9926C21.552 21.356 22.0444 21.7197 22.0444 21.7197L22.3583 21.6972C22.8284 22.0152 22.4027 22.6062 22.4027 22.6062C22.3132 22.7427 22.3583 23.1745 22.3583 23.1745L22.4701 23.9015L22.179 24.1519C21.9327 24.2884 21.9327 24.6064 22.2016 24.6746C22.3806 24.6971 22.3133 25.1291 22.0445 24.8336C21.6417 24.8336 22.2689 25.1973 22.0896 25.106C22.4929 25.3107 22.4028 24.9243 22.4028 24.9243L22.9408 24.4924C23.1424 24.3334 23.5009 24.8336 23.5009 24.9018C23.5009 24.97 24.3965 24.9243 24.3965 24.9243C24.6428 25.0834 24.7323 25.4927 24.7323 25.4927C24.9789 25.1742 25.4938 25.4697 25.1132 25.6517C25.4712 25.879 25.4712 26.0835 25.4712 26.0835C25.7627 25.9927 25.7627 26.2199 25.7627 26.2881C25.7627 26.3563 25.8522 25.9473 25.8522 25.9473C25.5163 25.6971 26.3001 25.6063 26.0763 26.0609L25.9417 26.2656L26.1658 26.4473L26.188 26.9703C26.6809 26.9246 26.5464 26.3108 26.5464 26.3108L26.7704 26.2656C26.7704 26.0609 26.9269 26.1746 26.9269 26.1746C26.7704 25.4016 27.2855 25.2655 27.2855 25.2655C27.5766 25.1973 27.5988 24.5833 27.5988 24.5833C27.3977 24.4924 27.5092 24.1744 27.7333 24.4473C27.9571 24.7196 27.5988 23.9014 27.5988 23.9014L27.4198 23.7425L27.1736 23.7198L27.151 23.4697H26.7482L26.6809 23.7881L26.5241 23.8335L26.4791 23.7425L26.412 23.9925H26.0091L25.9868 23.7198L26.233 23.6516L26.3226 23.5153L26.3897 23.1515H26.681L27.0616 23.038C27.0838 22.6515 27.2856 22.7426 27.2856 22.7426L27.4198 22.8561L27.6214 23.0152L27.6439 23.1514L27.5093 23.2195L27.4872 23.4016L27.5544 23.6515H27.7334C27.8005 23.2878 28.2712 23.2878 28.4054 23.5152L28.5399 23.197C28.2264 23.0379 28.5341 22.7877 28.6236 22.9015C28.7131 23.0152 28.9205 22.606 28.9205 22.606C28.9205 22.606 29.0772 22.8106 28.9205 22.5378C28.7638 22.2649 29.0323 22.1287 29.0323 22.1287C28.9877 21.8561 29.3236 21.9014 29.3236 21.9014L29.3462 21.5379L29.0323 21.5149C28.9656 21.8331 28.6966 21.5605 28.831 21.4924C28.9656 21.424 29.0995 21.2877 29.0995 21.2877V21.0604L29.234 21.0149L29.2563 20.7876H29.5924L29.8835 20.6514L29.9509 20.5376L30.2641 20.515L30.712 20.1057L30.6675 19.924C30.3987 19.924 30.6675 19.7194 30.6675 19.7194L30.7118 19.3792L30.7119 19.3793Z" fill="#D69D36"/>
<path d="M21.687 23.8789L21.2838 23.8335L21.3064 23.9925H21.4181C21.5971 24.3108 21.4406 25.0835 21.4406 25.0835C21.4406 25.0835 21.1721 25.106 21.127 24.97C21.0826 24.8336 20.9703 25.2655 21.0598 25.3337C21.1493 25.4015 21.4631 25.3337 21.4854 25.5839C21.5075 25.8337 21.687 25.4246 21.687 25.4246V23.8789L21.687 23.8789Z" fill="#D69D36"/>
<path d="M21.2827 25.7207V26.2659L21.6416 26.7426L21.7756 26.4245L21.821 26.2199L21.6637 26.1524L21.6859 25.8117L21.821 25.7882L21.8432 25.6285L21.5065 25.8567L21.2827 25.7207Z" fill="#D69D36"/>
<path d="M21.8655 27.2428V27.0157L21.7093 27.0382L21.686 27.2204L21.8655 27.2428Z" fill="#D69D36"/>
<path d="M21.6636 28.3344V28.1748L21.4736 28.1973V28.3569L21.6636 28.3344Z" fill="#D69D36"/>
<path d="M21.928 27.6352C21.9805 27.6352 22.0227 27.5923 22.0227 27.5391C22.0227 27.4856 21.9805 27.4425 21.928 27.4425C21.8755 27.4425 21.833 27.4855 21.833 27.5391C21.833 27.5923 21.8755 27.6352 21.928 27.6352Z" fill="#D69D36"/>
<path d="M22.084 28.1126C22.1365 28.1126 22.179 28.0695 22.179 28.0162C22.179 27.963 22.1365 27.9198 22.084 27.9198C22.0315 27.9198 21.989 27.963 21.989 28.0162C21.989 28.0695 22.0315 28.1126 22.084 28.1126Z" fill="#D69D36"/>
<path d="M22.0891 25.5159C22.1416 25.5159 22.1841 25.4728 22.1841 25.4195C22.1841 25.3663 22.1416 25.3231 22.0891 25.3231C22.0367 25.3231 21.9941 25.3663 21.9941 25.4195C21.9941 25.4728 22.0367 25.5159 22.0891 25.5159Z" fill="#D69D36"/>
<path d="M29.2781 22.3336H29.4132L29.4354 22.4697L29.3457 22.5607L29.3013 22.6743L29.1219 22.7203L28.7187 23.107L28.6965 23.2881L28.5846 23.4477L28.4506 23.7883L27.9799 23.8108L27.8901 24.22L27.9566 24.5607L28.3598 24.7203L28.4052 24.4932L28.5393 24.4246L28.5625 24.1975L28.6511 24.0379L28.7862 23.8794L28.8306 23.6973L29.0543 23.5612L29.3235 23.5152L29.4354 23.3791L29.4808 23.107L29.4966 22.9024L29.5926 22.7653L29.8607 22.6518V22.2201H29.7267L29.7045 22.0605L29.4575 22.038L29.4132 22.1515H29.3013L29.2781 22.3336Z" fill="#D69D36"/>
<path d="M30.3308 23.6068V23.2885L30.2857 22.9929L29.9501 22.834L29.7039 23.0613L29.6588 23.3796V23.5839L29.435 23.6296L29.3899 24.2432L29.211 24.3115L29.2334 24.5388L28.9871 24.6069L28.7409 24.6752L28.696 24.9706L28.5171 25.0842L28.427 25.357L28.3152 26.0161C28.3152 26.0161 28.517 26.4025 28.6288 26.2206C28.7409 26.0389 28.9199 26.0161 28.9199 26.0161L28.9871 25.8569L29.5918 25.8797C29.6366 25.6294 29.9278 25.7207 29.9278 25.8342C29.9278 25.9479 30.1518 25.8568 30.1518 25.8568L30.3085 25.6069H30.5546L30.577 25.3343L30.6892 25.2661V24.8567C31.0476 24.7432 31.0024 24.4022 31.0024 24.4022L31.0926 24.2888L31.0476 24.1298C30.8682 24.0614 30.9576 23.9021 31.0698 23.9476C31.1821 23.993 30.913 23.743 30.913 23.743C30.7788 23.8569 30.667 23.6068 30.667 23.6068H30.3307L30.3308 23.6068Z" fill="#D69D36"/>
<path d="M30.6892 26.3567C30.6669 26.6294 30.3307 26.7204 30.3307 26.7204L30.0845 26.6523L29.9502 26.5386L29.9277 26.2202L30.1291 26.1978L30.174 26.3342L30.6892 26.3567H30.6892Z" fill="#D69D36"/>
<path d="M31.8989 24.9029C31.9473 25.1011 31.9433 24.5843 32.033 24.6074C32.1225 24.63 32.0555 24.2893 32.0555 24.2893L31.6523 24.5843C31.8538 24.6073 31.8761 24.8121 31.8989 24.9029H31.8989Z" fill="#D69D36"/>
<path d="M33.0859 23.72C33.1754 23.9247 33.1532 24.2202 33.4887 24.4475C33.6021 24.5241 33.4215 24.6748 33.3093 24.6065C33.1975 24.5384 32.8843 24.0381 32.8843 24.0381V23.7427C32.9514 23.561 33.047 23.6319 33.0859 23.72V23.72Z" fill="#D69D36"/>
<path d="M33.0864 30.6301L33.1529 30.6976L33.2194 30.8112L33.3767 30.5616L33.2426 30.5155L33.0864 30.6301Z" fill="#D69D36"/>
<path d="M35.7641 29.9369L35.9435 29.8234L35.8717 29.7087L35.6934 29.8212L35.7641 29.9369Z" fill="#D69D36"/>
<path d="M42.2457 34.6759L42.4475 34.7665L42.4696 35.1529C42.7386 35.4256 43.612 35.1984 43.612 35.1302C43.612 35.0618 43.5669 34.2893 43.5669 34.2893L43.4547 34.1755L43.4326 33.6069C43.5221 33.3115 43.0069 32.8796 42.9622 32.9709C42.9174 33.0616 42.6263 32.9932 42.6263 33.0844C42.6263 33.175 42.4474 33.6297 42.5368 33.789C42.6263 33.9482 42.4694 33.9482 42.4473 34.1072C42.425 34.2662 42.2008 34.5394 42.2457 34.6759L42.2457 34.6759Z" fill="#D69D36"/>
<path d="M41.7526 33.7663C41.7102 33.9385 41.5514 34.039 41.4619 33.9707C41.3718 33.9023 41.5733 34.0841 41.6184 34.1755C41.6631 34.2661 41.7973 34.2661 41.8424 34.1755C41.8868 34.084 41.8647 33.88 41.9097 33.7891C41.9542 33.698 41.7752 33.6753 41.7526 33.7663L41.7526 33.7663Z" fill="#D69D36"/>
<path d="M40.8679 29.5967H40.7114V30.0287H40.8679V29.5967Z" fill="#D69D36"/>
<path d="M43.03 25.2208C42.9322 25.0884 43.4778 24.8571 43.5673 25.13C43.6568 25.4024 43.5673 25.3573 43.4778 25.3346C43.388 25.3117 43.1645 25.4025 43.03 25.2208L43.03 25.2208Z" fill="#D69D36"/>
<path d="M43.5115 22.176L43.4883 22.3099L43.7342 22.3549L43.7585 22.221L43.5115 22.176Z" fill="#D69D36"/>
<path d="M42.8833 22.5671L42.9002 22.6088L43.0247 22.5585L42.9794 22.4449L42.9509 22.3732L42.8844 22.4107L42.7176 22.5049L42.5719 22.4128L42.5012 22.5274L42.6807 22.641L42.7144 22.6624L42.7482 22.6431L42.8833 22.5671Z" fill="#D69D36"/>
<path d="M43.7238 17.0377H43.3877C43.3877 17.0377 43.4998 17.0831 43.1865 16.7876C42.8725 16.4921 42.6713 16.8558 42.6713 16.8558L42.313 16.9012V17.2649L42.1335 17.333L42.1562 17.5604L42.4025 17.5378C42.4025 17.5378 42.4025 17.8105 42.4697 17.6969C42.5371 17.5831 43.097 17.7194 43.052 17.9923C43.0338 18.1044 43.6122 18.4012 43.5449 18.7649C43.836 18.8105 43.7689 19.1061 43.7689 19.1061L44.1494 19.1515L44.2616 18.9242L44.3734 18.947V18.8105L44.1267 18.7424L44.0823 18.0149L43.9255 17.9013L43.9702 17.7194L43.7912 17.6511L43.8808 17.3557L43.7238 17.0377L43.7238 17.0377Z" fill="#D69D36"/>
<path d="M44.7085 19.3562L44.5295 19.3337L44.1258 19.4019L43.9023 19.8337C43.9023 19.8337 44.0141 19.9019 44.1035 20.061C44.193 20.2203 44.2379 21.1519 43.9692 21.3112C43.7007 21.4704 43.9918 21.3791 43.9918 21.3791L43.9467 21.8793C44.0141 22.1066 44.1257 21.9931 44.193 21.8793C44.2608 21.7659 44.328 21.7431 44.4175 21.6295C44.507 21.5156 44.6413 21.3112 44.6637 21.1519C44.6859 20.9929 44.798 20.743 44.7308 20.6748C44.6637 20.6066 44.7981 20.2885 44.7981 20.2885C44.7981 20.2885 44.8876 20.1064 44.7981 19.9247C44.7086 19.7427 44.8204 19.5382 44.8876 19.4472L44.7085 19.3562L44.7085 19.3562Z" fill="#D69D36"/>
<path d="M45.0024 20.1015L44.9795 20.2834L45.1131 20.3008L45.136 20.1189L45.0024 20.1015Z" fill="#D69D36"/>
<path d="M44.8513 20.8507L44.9712 20.9116L45.0384 20.7753L44.9186 20.7144L44.8513 20.8507Z" fill="#D69D36"/>
<path d="M44.7759 19.1069L44.686 18.9022C44.686 18.9022 44.686 18.7206 44.7308 18.6293C44.7759 18.5385 44.6413 18.4477 44.5743 18.4249C44.5071 18.4021 44.5297 18.2204 44.5071 18.1294C44.4848 18.0385 44.3282 17.9704 44.3282 17.9704C44.3282 17.9704 44.283 17.6294 44.283 17.5613C44.283 17.4931 44.0815 17.4022 44.1487 17.3339C44.2161 17.2658 44.2609 17.1749 44.3282 17.1293C44.3954 17.0839 44.2608 16.7656 44.3726 16.8337C44.4848 16.9021 44.4848 17.0156 44.5297 17.1066C44.5743 17.1974 44.5071 17.5158 44.6193 17.584C44.731 17.652 44.5966 17.8792 44.7759 17.8792C44.9549 17.8792 44.8432 18.3113 44.8432 18.3113C44.8432 18.3113 44.7982 18.6293 44.91 18.6522C45.0222 18.6749 44.955 19.2204 44.955 19.2204L44.7759 19.1069L44.7759 19.1069Z" fill="#D69D36"/>
<path d="M43.321 15.4236C43.388 15.5144 43.5224 15.5825 43.5224 15.6737C43.5224 15.7648 43.4778 15.8327 43.6124 15.8555C43.7464 15.8781 43.8362 15.8327 43.8809 15.9463C43.9257 16.0599 43.9257 16.2418 43.9035 16.3327C43.8809 16.4238 43.9257 16.56 44.0375 16.56C44.1497 16.56 44.172 16.5828 44.172 16.6511C44.172 16.7191 44.3065 16.4008 44.3065 16.4008C44.1942 16.31 44.1047 16.1053 44.1047 16.1053C44.1047 16.1053 43.9929 15.7872 43.9929 15.7417C43.9929 15.6963 43.8362 15.6507 43.7691 15.6281C43.7018 15.6053 43.5896 15.4009 43.5896 15.4009L43.321 15.4236L43.321 15.4236Z" fill="#D69D36"/>
<path d="M43.5447 15.2202C43.4773 15.1291 43.4101 15.0609 43.3206 15.0157C43.2313 14.9701 43.1641 14.9247 43.0741 14.9247C42.9846 14.9247 42.8952 14.8336 42.9397 14.7202C42.9847 14.6064 42.8723 14.561 42.8723 14.4699C42.8723 14.3791 42.9397 14.3791 43.0517 14.4473C43.1639 14.5156 43.1412 14.5382 43.2313 14.6521C43.3206 14.7656 43.3652 14.8793 43.4546 14.8564C43.5447 14.8336 43.6118 15.0609 43.7013 14.9928C43.7908 14.9247 43.7686 15.1519 43.7686 15.1519L43.5447 15.2202L43.5447 15.2202Z" fill="#D69D36"/>
<path d="M40.9242 17.788C41.0476 17.9135 40.2524 17.8787 40.2524 17.788C40.2524 17.6971 40.3198 17.3791 40.521 17.4468C40.7226 17.5152 40.7447 17.0379 40.7447 17.0379C40.7447 17.0379 40.5658 17.0604 40.7226 16.9697C40.8793 16.8788 40.7226 16.7424 40.6552 16.6742C40.5882 16.6059 40.521 16.4923 40.521 16.4923H40.8348C40.9692 16.4013 41.0137 15.9696 41.0137 15.9696C41.2822 16.0604 41.4167 15.8785 41.4167 15.8785C41.4167 15.8785 41.4621 16.0149 41.5515 16.1288C41.641 16.2422 41.3271 16.2877 41.4392 16.3561C41.5515 16.4243 41.596 16.6287 41.5515 16.6967C41.5065 16.765 41.2598 16.7196 41.2598 16.6287C41.2598 16.5377 41.1703 16.7424 41.2598 16.856C41.3493 16.9697 41.148 17.1287 41.1031 17.1287C41.0582 17.1287 40.7675 17.1743 41.0136 17.3105C41.2598 17.4468 41.5291 17.379 41.5291 17.379C41.5291 17.379 41.7305 17.356 41.7976 17.4698C41.8649 17.5834 41.7753 17.6062 41.6633 17.6062C41.5516 17.6062 41.0137 17.5606 41.0137 17.5606C41.0137 17.5606 40.8571 17.7197 40.9242 17.788L40.9242 17.788Z" fill="#D69D36"/>
<path d="M39.4907 17.9928C39.6031 17.9701 39.8713 17.9471 39.9163 18.0154C39.9614 18.0835 39.7596 18.1744 39.7596 18.1744L39.4907 18.22C39.4012 18.1062 39.379 18.0155 39.4907 17.9928V17.9928Z" fill="#D69D36"/>
<path d="M42.3806 16.0839C42.5596 15.9931 42.9402 15.9931 42.918 15.8566C42.8958 15.7202 43.1418 15.6748 43.1418 15.6748L43.2091 15.9474L43.4107 16.0838L43.4332 16.3338C43.4332 16.3338 43.5002 16.2884 43.2541 16.3566C43.0075 16.4249 43.1646 16.5383 43.1646 16.5383L42.6269 16.561L42.5596 16.3337L42.3806 16.0839L42.3806 16.0839Z" fill="#D69D36"/>
<path d="M41.5062 14.8565C41.6423 14.8565 41.4618 15.3792 41.8196 15.3338C42.178 15.2882 41.8424 15.4929 42.1109 15.5155C42.3797 15.5385 42.3125 15.311 42.402 15.1521C42.4919 14.993 42.447 14.9019 42.2902 14.8565C42.133 14.8111 42.133 14.8111 42.0886 14.629C42.0439 14.4473 41.8646 14.4017 41.8646 14.4017L41.7973 14.1292L41.5062 14.3108L41.2151 14.6972C41.2151 14.993 41.3717 14.8565 41.5062 14.8565Z" fill="#D69D36"/>
<path d="M42.1662 16.6407L42.0989 16.7771L42.2193 16.8383L42.2866 16.7019L42.1662 16.6407Z" fill="#D69D36"/>
<path d="M41.999 16.5607H41.8645V16.7197H41.999V16.5607Z" fill="#D69D36"/>
<path d="M42.0001 13.7366L41.9775 13.5322L41.844 13.5474L41.8666 13.7518L42.0001 13.7366Z" fill="#D69D36"/>
<path d="M41.7309 15.6512H41.5964V15.7651H41.7309V15.6512Z" fill="#D69D36"/>
<path d="M41.2305 15.5131L41.2437 15.6489L41.4676 15.6265L41.4544 15.4907L41.2305 15.5131Z" fill="#D69D36"/>
<path d="M39.2729 17.7812L39.396 17.8348L39.4633 17.6758L39.3403 17.6221L39.2729 17.7812Z" fill="#D69D36"/>
<path d="M38.6799 17.2856L38.6931 17.4211L38.9174 17.3987L38.9042 17.2632L38.6799 17.2856Z" fill="#D69D36"/>
<path d="M34.8068 17.3792L34.3149 17.4016L34.3213 17.5377L34.8131 17.5152L34.8068 17.3792Z" fill="#D69D36"/>
<path d="M33.9405 17.3721L33.9851 17.5764L34.1165 17.5469L34.0719 17.3425L33.9405 17.3721Z" fill="#D69D36"/>
<path d="M33.8484 17.588L33.8909 17.7174L33.958 17.6947L33.9155 17.5653L33.8484 17.588Z" fill="#D69D36"/>
<path d="M35.011 17.3341L34.9888 17.4932L35.2348 17.516C35.2348 17.516 35.3466 17.607 35.3466 17.675C35.3466 17.7432 35.5037 17.8113 35.5932 17.8113C35.6827 17.8113 35.929 17.6294 35.929 17.6294C35.929 17.6294 36.0412 17.3112 35.9517 17.3339C35.8618 17.3565 35.6827 17.493 35.6606 17.3565C35.6379 17.2201 35.3695 17.2883 35.3695 17.2883L35.011 17.3341V17.3341Z" fill="#D69D36"/>
<path d="M36.1308 17.0835C36.1308 17.1515 36.0864 17.2425 36.2204 17.2654C36.3553 17.2879 36.6016 17.1745 36.6238 17.3108C36.6465 17.4471 36.6465 17.5383 36.8254 17.6066C37.0043 17.6746 37.1167 17.6974 37.2509 17.6974C37.385 17.6974 37.6766 17.6517 37.6766 17.6517C37.6766 17.6517 37.9935 17.7013 38.0571 17.7655C38.3034 18.0154 38.4601 18.0836 38.5272 17.97C38.5945 17.8563 38.505 17.6065 38.4827 17.5155C38.4601 17.4244 38.1465 16.9926 38.0345 17.0835C37.9227 17.1746 37.9004 17.0835 37.6987 17.1515C37.4971 17.2198 37.0715 17.1746 37.0493 17.0835C37.0271 16.9925 36.7135 16.9473 36.7135 16.8562C36.7135 16.7651 36.4897 16.6517 36.5119 16.788C36.5341 16.9242 36.3552 16.9925 36.3097 16.9472C36.2653 16.9017 36.1308 17.0835 36.1308 17.0835L36.1308 17.0835Z" fill="#D69D36"/>
<path d="M41.2824 14.1733L41.4394 13.6736C41.2156 13.628 41.2601 13.3782 41.2601 13.3782C41.2378 13.1735 40.9243 12.9463 40.8123 13.0145C40.7005 13.0824 40.7449 12.537 40.7449 12.537C40.7449 12.537 40.9467 12.4008 41.0362 12.4689C41.1258 12.537 40.2749 11.3325 40.0956 11.4462C39.9166 11.5598 39.5137 11.3325 39.536 11.1278C39.5582 10.9234 38.7297 10.2414 38.7297 10.2414C38.7297 10.2414 38.4608 10.0598 38.4162 10.1961C38.3713 10.3324 38.2818 10.4235 38.4162 10.4914C38.5504 10.5597 38.528 10.3778 38.6846 10.5368C38.8413 10.6959 39.1329 10.9006 39.0208 11.0369C38.9087 11.1735 38.7742 11.2189 38.7742 11.2189L38.9313 11.4008H39.1775L39.2224 11.787C39.2224 11.787 39.4909 11.9235 39.5582 12.0826C39.6255 12.2415 39.6255 12.3326 39.5582 12.4236C39.4909 12.5145 39.3571 12.6735 39.3792 12.8325C39.4015 12.9916 39.5808 13.0598 39.5808 13.0598L39.7597 13.0826L39.8943 13.151V13.4466C40.0732 13.401 40.3643 13.6508 40.3421 13.8101C40.3199 13.9692 40.3866 13.8782 40.6106 14.0374C40.8348 14.1965 40.7677 14.2193 40.9244 14.3329C41.0812 14.4463 41.2157 14.3781 41.2824 14.1733L41.2824 14.1733Z" fill="#D69D36"/>
<path d="M37.5872 11.0828C37.5649 10.9917 37.5198 10.6734 37.6544 10.6961C37.7886 10.7191 37.6992 10.6961 37.856 10.7644C38.0127 10.8328 38.035 10.6509 38.035 10.6509H38.2816L38.5949 10.9007L38.5501 11.1054L38.3261 11.1279C38.2143 10.9463 37.9903 11.0144 38.035 11.1736C38.0799 11.3326 37.9232 11.6281 37.8338 11.6507C37.7442 11.6736 37.4526 11.6736 37.4754 11.5373C37.4977 11.4009 37.5872 11.0828 37.5872 11.0828L37.5872 11.0828Z" fill="#D69D36"/>
<path d="M37.4078 10.4685V10.2868C37.4078 10.2868 37.385 10.105 37.2733 10.105C37.1616 10.105 36.9599 9.96873 37.0044 9.87769C37.0495 9.78663 36.6239 9.69579 36.6239 9.69579C36.6239 9.69579 36.2434 9.33212 36.3776 9.37775C36.5121 9.42317 36.445 9.21846 36.445 9.21846C36.445 9.21846 36.176 9.26388 36.1088 9.24128C36.0414 9.21846 36.0637 9.01397 36.0637 9.01397C36.0637 9.01397 35.7954 8.94573 35.7954 9.01397C35.7954 9.08221 35.8849 9.08221 35.9294 9.21836C35.9744 9.35462 35.952 9.58215 36.1539 9.62745C36.3555 9.67309 36.3999 9.71829 36.4227 9.80935C36.445 9.9004 36.6912 9.923 36.6912 9.923L36.8705 10.0138L37.4078 10.4685V10.4685Z" fill="#D69D36"/>
<path d="M34.9893 8.15068L34.9228 7.96857L34.7434 7.92358V8.12818L34.9893 8.15068Z" fill="#D69D36"/>
<path d="M34.922 7.19594C34.6879 7.01823 35.2353 7.33242 35.2353 7.33242C35.4143 7.33242 35.5264 7.46879 35.5264 7.53714C35.5264 7.60526 35.7727 7.58256 35.7727 7.58256L35.7955 7.42327L35.616 7.19596L35.4594 7.08263C35.4594 7.08263 35.2132 7.05981 35.2132 6.99158C35.2131 6.92355 35.0115 7.26431 34.922 7.19597L34.922 7.19594Z" fill="#D69D36"/>
<path d="M39.042 7.33209C38.9766 7.53101 38.9525 7.80953 38.8404 7.80953C38.7286 7.80953 38.7732 8.10529 38.7732 8.10529C38.7732 8.10529 39.0648 8.10529 39.1543 8.12778C39.2436 8.15028 39.2436 8.37759 39.2436 8.37759C39.5798 8.3551 39.7142 8.80961 39.6692 8.92327C39.6243 9.03682 39.8036 9.03682 39.8036 9.03682C39.8036 9.03682 39.8036 9.4006 39.7586 9.49134C39.7141 9.58239 40.0499 9.65062 40.1394 9.78688C40.2289 9.92336 40.0943 10.3779 40.0274 10.4006C39.9603 10.4234 40.2063 10.4914 40.1841 10.6051C40.1614 10.719 40.2514 10.6051 40.2736 10.7871C40.2959 10.9688 40.341 11.3551 40.341 11.3551L40.6542 11.3781C40.6993 11.0826 41.2767 11.0713 41.371 11.1052C41.7517 11.2416 42.0432 11.8326 42.0432 11.9688C42.0432 12.1051 41.7966 12.1281 41.7966 12.1281L41.8417 12.787C42.2222 12.9008 42.5357 13.4465 42.4911 13.5373C42.4462 13.6281 42.7595 13.6057 42.7595 13.6057C42.8046 13.1962 43.1852 13.3327 43.2073 13.4692C43.2302 13.6057 43.297 13.9011 43.297 13.9011L43.409 14.1054L43.5658 14.2646L43.812 14.2418L43.8794 14.3783L44.1705 14.424C44.1705 14.424 44.4171 14.6964 44.4393 14.7648C44.462 14.8328 44.7978 14.8102 44.8871 14.8328C44.9767 14.8556 45.1112 14.9239 45.1334 15.0374C45.1561 15.1512 45.2906 15.333 45.2906 15.333C45.2906 15.333 45.5591 15.4013 45.5817 15.4921C45.6039 15.5828 45.7161 15.7875 45.7161 15.7875L45.9396 15.9694L45.9621 16.1741L46.2084 16.1968L46.2757 16.4692L46.6785 16.4467L46.9029 16.2876C47.194 16.1287 47.3956 15.924 47.4181 15.8329C47.4403 15.7421 47.4851 15.4013 47.7092 15.4695C47.933 15.5377 47.7764 14.9693 47.7764 14.9693C47.7764 14.9693 47.463 14.742 47.4851 14.6281C47.5076 14.5147 47.1719 14.2875 47.194 14.1964C47.2163 14.1054 46.9029 13.9238 46.9252 13.8329C46.9474 13.7418 46.7684 13.4917 46.7684 13.4917L46.4323 13.1736L46.3874 12.9689L46.1189 12.9464L45.5816 12.2872L45.6038 12.1052L45.4471 12.0826V11.8327L45.2906 11.7416L45.0439 11.7189L44.5514 11.1736L44.5066 10.9234H44.2603L44.3049 10.446C44.4619 10.2414 44.3721 9.85502 44.3721 9.85502C44.3721 9.85502 44.0583 10.0141 43.902 9.94586C43.7449 9.87794 43.9689 9.71855 43.9689 9.71855V9.53688L43.8347 9.40051C43.8347 9.40051 43.4537 9.44614 43.4315 9.37801C43.4091 9.30978 43.342 9.01423 43.342 9.01423L43.3196 8.62773L43.163 8.55981L43.1402 8.42323L42.8942 8.44583V8.1732L42.7596 8.12779L42.6254 8.05955L42.603 7.7867L42.1103 7.76421L41.9535 7.5369L41.7745 7.26407L41.2146 7.21865L41.0801 7.0825L40.8563 7.03686L40.6995 6.96863L40.6323 7.0825L40.2066 7.10499L40.1845 7.24136C39.9606 7.35502 39.0648 7.26396 39.042 7.33209L39.042 7.33209Z" fill="#D69D36"/>
<path d="M41.3942 6.74197C41.3587 6.56254 41.8424 6.40101 41.9542 6.53725C42.0664 6.67362 42.3798 6.69675 42.4247 7.37858C42.4405 7.62272 42.0215 7.12856 42.0215 7.12856L41.6853 7.01491C41.5063 6.96927 41.4165 6.85593 41.3942 6.74195L41.3942 6.74197Z" fill="#D69D36"/>
<path d="M34.703 6.96439L34.8254 7.01978L34.9153 6.81518L34.7929 6.7598L34.703 6.96439Z" fill="#D69D36"/>
<path d="M33.6678 4.78695L33.3761 4.4914V4.24138L33.2866 4.15022L33.1971 3.83217L32.906 3.74133L32.6149 3.85477L32.3013 4.05938L31.9656 4.10512L31.7861 4.30951L32.5029 4.37743L32.6371 4.60506L33.1527 4.65048L33.4882 4.99133C33.7799 5.08238 33.8469 4.94591 33.6678 4.78694L33.6678 4.78695Z" fill="#D69D36"/>
<path d="M33.6235 3.67283C33.5742 3.47305 33.2873 3.92275 33.5791 4.01347C33.8702 4.10484 34.1608 4.01347 34.1608 4.01347L34.2282 3.87721L35.3476 3.90003C35.4378 3.80897 35.4821 3.67272 35.4821 3.67272C35.4821 3.67272 35.751 3.58166 35.8627 3.62708C35.9749 3.67272 35.8855 3.30904 35.7732 3.35445C35.6614 3.39987 35.4376 3.37716 35.4376 3.37716H35.0343C35.012 3.2182 34.6537 3.28611 34.6313 3.37716C34.6086 3.468 34.4748 3.49071 34.4748 3.49071L33.9596 3.53635C33.9146 3.67282 33.6462 3.76365 33.6235 3.67282L33.6235 3.67283Z" fill="#D69D36"/>
<path d="M31.4057 7.50858C31.7501 7.61784 31.8758 7.53696 31.8986 7.44613C31.9209 7.35507 31.943 7.33226 32.0776 7.30976C32.2119 7.28694 32.0551 7.01421 31.9209 7.03691C31.7863 7.05962 31.6519 6.99149 31.6298 6.87784C31.6069 6.7643 31.3831 6.46875 31.3608 6.69617C31.3385 6.92347 31.2041 6.92347 31.2264 7.08256C31.2489 7.24132 31.3162 7.47987 31.4057 7.50858V7.50858Z" fill="#D69D36"/>
<path d="M28.831 7.76445C28.8148 7.68401 29.2788 7.67361 29.3462 7.74153C29.4135 7.80987 29.3684 7.92342 29.57 7.92342C29.7713 7.92342 29.6819 8.0599 29.6595 8.12814C29.6373 8.19627 29.4135 8.17355 29.3906 8.10564C29.3684 8.0373 29.0323 8.01427 29.0323 8.01427C29.0323 8.01427 28.8533 7.87779 28.831 7.76446L28.831 7.76445Z" fill="#D69D36"/>
<path d="M36.2177 3.17546L36.261 3.21884L36.3075 3.1807L36.5323 2.99871L36.4478 2.89233L36.2705 3.03588L36.1565 2.92008L36.0615 3.01638L36.2177 3.17546Z" fill="#D69D36"/>
<path d="M35.213 2.63967L35.2489 2.61664L35.4959 2.45735L35.4241 2.34241L35.213 2.47834L35.0695 2.38761L34.9988 2.5033L35.1782 2.61664L35.213 2.63967Z" fill="#D69D36"/>
<path d="M34.4131 7.28301L34.5524 7.50475L34.6653 7.43191L34.5091 7.18232L34.4912 7.15447L34.4584 7.15125L34.2347 7.12769L34.2209 7.26373L34.4131 7.28301Z" fill="#D69D36"/>
<path d="M27.0838 13.4917L27.1067 13.7418H27.4423C27.5767 13.7418 27.3305 13.5828 27.3305 13.5828C27.3305 13.5828 27.0617 13.6056 27.0838 13.4917L27.0838 13.4917Z" fill="#D69D36"/>
<path d="M27.5966 13.394L27.5107 13.499L27.6452 13.6122L27.731 13.5072L27.5966 13.394Z" fill="#D69D36"/>
<path d="M23.5256 9.15017L23.4304 9.24658L23.5646 9.38304L23.6598 9.28662L23.5256 9.15017Z" fill="#D69D36"/>
<path d="M29.7455 38.6275L29.8416 38.7239L29.9535 38.6104L30.0189 38.544L29.9355 38.5011L29.7118 38.3876L29.6516 38.5097L29.792 38.5804L29.7455 38.6275Z" fill="#D69D36"/>
<path d="M27.985 36.9813L28.1423 37.0948L28.2204 36.9845L28.1338 36.9213L28.2014 36.8645L28.1159 36.7595L27.9808 36.8731L27.9143 36.9298L27.985 36.9813Z" fill="#D69D36"/>
<path d="M44.8554 32.5526C44.8258 32.4368 44.6952 32.3892 44.6804 32.3844L44.6377 32.514V32.5132C44.6484 32.5173 44.6639 32.5254 44.6794 32.5356L44.7068 32.6534C44.6968 32.6685 44.6858 32.6827 44.6772 32.6928L44.7758 32.7851C44.8476 32.7051 44.8742 32.6275 44.8554 32.5526L44.8554 32.5526Z" fill="#D69D36"/>
<path d="M45.062 32.1233L44.8435 32.1072L44.8604 31.9026L45.0789 31.9369L45.062 32.1233Z" fill="#D69D36"/>
<path d="M50.2524 30.3511C50.3481 30.2906 50.4705 30.1804 50.454 30.4365C50.437 30.6921 50.3363 30.6072 50.2524 30.6921C50.1684 30.7775 50.118 30.4365 50.2524 30.3511Z" fill="#D69D36"/>
<path d="M51.3921 29.3866C51.3902 29.3821 51.389 29.3664 51.3881 29.3549C51.3851 29.3174 51.3802 29.2663 51.3537 29.2126L51.2336 29.2736C51.2485 29.304 51.2515 29.3362 51.254 29.367C51.2574 29.4069 51.2618 29.4524 51.2999 29.4812C51.324 29.4995 51.3544 29.5048 51.3906 29.4978L51.3649 29.3658C51.3753 29.3674 51.3889 29.3769 51.3921 29.3866H51.3921Z" fill="#D69D36"/>
<path d="M51.0933 29.4983C51.1274 29.6365 51.1772 29.7726 51.1794 29.7783L51.3054 29.7303C51.3045 29.7291 51.2556 29.5957 51.2234 29.4648L51.0933 29.4983V29.4983Z" fill="#D69D36"/>
<path d="M50.604 30.0346L50.4702 30.0212C50.4597 30.1285 50.4853 30.261 50.5911 30.2825L50.6174 30.1488C50.6184 30.1488 50.6196 30.1496 50.6199 30.1496C50.6091 30.14 50.5992 30.0851 50.604 30.0347V30.0346Z" fill="#D69D36"/>
<path d="M50.0154 27.3225C50.0084 27.2788 49.9822 27.2448 49.9419 27.2269C49.8425 27.1832 49.6749 27.2555 49.5928 27.3112L49.6671 27.4248C49.7521 27.3671 49.8638 27.3394 49.8887 27.3521C49.8865 27.3513 49.8834 27.3473 49.8826 27.3446L50.0154 27.3225L50.0154 27.3225Z" fill="#D69D36"/>
<path d="M43.8126 20.0608C43.7231 20.1519 43.5215 20.1973 43.5215 20.1973L43.4542 20.4473L43.3425 20.5382C43.3425 20.5382 43.3646 20.6063 43.3425 20.7655C43.32 20.9245 43.1184 21.0155 43.1184 21.0155L43.0289 21.1292C43.0289 21.1292 42.489 21.1584 42.4242 21.1292C42.2226 21.0383 42.3572 20.7655 42.4916 20.7882C42.6257 20.811 42.4689 20.4017 42.4689 20.4017L42.6483 20.3791C42.6483 20.3791 42.6705 19.9698 42.7378 19.9698C42.805 19.9698 42.7155 19.8335 42.6256 19.7653C42.5361 19.6974 42.4242 19.4701 42.3343 19.4927C42.2448 19.5153 41.8864 19.4927 41.8864 19.4927L41.8192 19.6291L41.5728 19.6745C41.5728 19.6745 41.594 19.8502 41.5509 19.9019C41.416 20.0608 40.9013 20.4018 41.1249 19.8336L41.1919 19.6975V19.4928L40.7893 19.4703C40.7893 19.4703 40.5877 19.4019 40.5877 19.311C40.5877 19.22 40.5652 19.1066 40.5652 19.1066L40.0947 18.5838L39.5351 18.5157L39.4901 18.4018L39.1545 18.3564C38.7511 18.152 38.3927 18.3337 38.46 18.6747C38.5271 19.0159 38.6389 19.1521 38.4154 19.1521C38.1911 19.1521 38.1464 18.9703 38.1464 18.9703C38.1464 18.9703 37.9675 18.902 37.9675 18.9928C37.9675 19.0839 37.9002 19.2657 37.9675 19.3565C38.0344 19.4474 37.8776 19.5838 37.8104 19.5156C37.7437 19.4473 37.5643 19.2432 37.6092 19.1749C37.6538 19.1067 37.2953 18.6747 37.6538 18.6066C38.0123 18.5383 37.6315 18.3337 37.766 18.2885L37.9449 18.1975H38.1239L38.236 18.1064L37.9449 18.0612L37.766 18.0384L37.4299 18.0157C37.0941 18.243 37.0271 18.5158 37.0271 18.5158C36.8476 18.8567 36.4224 18.3793 36.5793 18.1976C36.7358 18.0157 36.0864 18.1747 35.9743 18.2657C35.8621 18.3565 35.5262 18.3111 35.5262 18.3111C35.4592 18.5158 35.1457 18.2886 35.2351 18.1522C35.3247 18.0158 35.3247 17.9248 35.3247 17.9248L35.2129 17.902L35.0787 18.152C34.7651 18.152 34.6753 18.3337 34.7424 18.4475C34.8095 18.5609 34.6529 18.4248 34.6079 18.5839C34.5635 18.7429 34.6306 18.7429 34.7651 18.8112C34.8996 18.8794 34.6978 18.8794 34.7874 18.9928C34.8769 19.1067 35.1457 18.9928 34.9891 19.1521C34.8323 19.3111 34.5184 19.2432 34.5184 19.2432C34.4962 19.4474 34.0706 19.4022 34.0262 19.334C33.9811 19.2658 33.6454 18.8566 33.6454 18.8566L33.2194 18.8339C33.1749 18.5158 33.4212 18.6748 33.5107 18.4248C33.6007 18.1746 33.6454 17.7658 33.6454 17.7658C33.6454 17.7658 33.2867 17.7431 33.2644 17.8566C33.2423 17.9704 33.0182 18.0385 33.0182 18.0385C33.0182 18.0385 32.8388 18.1065 32.9061 18.1976C32.9733 18.2886 32.7716 18.3337 32.7716 18.3337C32.7716 18.3337 32.8065 18.4806 32.7493 18.5383C32.5704 18.7204 32.1222 18.5609 32.0552 18.4929L31.7863 18.3793L31.5175 18.1975L31.2041 18.3336L31.1146 18.4247H30.7784L30.7563 18.6971L31.361 18.7652L31.4058 19.3278L31.1591 19.2429H31.0024L30.9354 19.1064L30.8009 19.0836V19.5835L30.9354 19.6974L31.0476 19.8107L31.2716 19.8335L31.3164 20.1062L31.876 20.1292L31.9433 20.2426L32.2794 20.2655L32.9289 20.9244L32.884 21.1291L32.7718 21.1973C32.8169 21.3564 32.481 21.2655 32.481 21.2655V21.4017L32.6373 21.4244L32.7945 21.5152L33.0183 21.129C33.2645 20.9699 33.3763 21.1972 33.3991 21.3336C33.4212 21.4699 33.2868 21.4471 33.2868 21.4471V21.7656L33.4212 21.8108C33.6455 22.0836 33.3317 22.2428 33.3317 22.2428L33.2644 22.47C33.1972 22.6746 32.9509 22.629 32.9509 22.629L32.8616 22.7655L32.5925 22.8337L33.1242 22.9018C33.1748 22.7199 33.3088 22.6745 33.3761 22.7655C33.4434 22.8565 33.4434 23.0156 33.4434 23.0156L33.5783 23.0383L33.5555 23.2882L33.69 23.3339V24.0611L33.8467 24.2429C34.1155 24.1295 34.1155 24.3112 33.981 24.402C33.8467 24.4927 33.9361 24.9021 33.9361 24.9021L33.8241 25.0155V25.1975L33.6899 25.2884V25.5383C33.4658 25.4248 33.197 25.47 33.1296 25.5383C32.9284 25.4018 32.5029 25.4475 32.5029 25.5612C32.637 25.743 32.3464 25.7885 32.3464 25.7885L32.1892 25.9703C32.3014 26.1977 32.0775 26.2202 32.0775 26.2202V26.6523L31.8086 26.9023L31.8313 27.4933C31.8313 27.6523 32.167 27.6749 32.2339 27.5841C32.3013 27.4933 32.5702 27.7661 32.5702 27.7661H32.7714L32.8165 27.3568L32.6819 27.2886V26.6293L32.906 26.3792C33.1748 26.2884 33.0853 26.9705 33.0853 27.0386C33.1076 27.2886 33.2192 27.2659 33.3315 27.2203C33.5554 27.1295 33.376 27.4707 33.1971 27.4476C33.0181 27.4251 33.1297 27.6749 33.1297 27.6749L33.242 27.7206L33.0402 27.8796L32.8615 28.0843L32.637 28.016L32.3686 27.9935L32.279 27.834L32.1219 27.8114L32.0997 28.1295L31.9879 28.2658L31.7191 28.539C32.0775 28.539 31.674 28.7885 31.5846 28.7885C31.7861 28.8567 31.5623 29.0615 31.0472 28.9025V29.0614L30.8678 29.0842L31.025 29.2658L31.2039 29.2886L31.1366 29.675C31.1366 29.9704 30.3977 29.7656 30.3304 29.6977L30.3081 30.1069L30.1736 30.1293L30.1959 30.4024L30.1736 30.7888L30.4199 30.7433V30.9025L31.0249 30.9253L31.8983 29.9931L32.4133 29.8797C32.4579 29.6521 32.6817 29.9252 32.6817 29.9252C32.9057 29.902 32.9506 30.0614 32.9506 30.0614L33.2419 30.1069C33.488 30.1753 33.3392 30.1991 33.3537 30.289C33.3759 30.4252 33.488 30.3796 33.488 30.3796L33.533 30.0842L33.6675 30.1069L33.533 29.9477L33.2864 29.8339L33.0178 29.7204C32.8385 29.4705 33.0626 29.516 33.2419 29.5389H33.533C33.533 29.5389 33.8692 29.9932 33.8692 30.1069C33.8692 30.2208 34.0259 30.2435 34.0259 30.2435L34.2271 30.2207L34.2944 30.3796H34.4959L34.5633 30.5157H34.9665L34.9888 30.3113L34.6077 30.2435L34.5855 30.0159L34.317 29.9476C34.2271 29.5616 34.3839 29.4477 34.4959 29.6298L34.6303 29.6521L34.5854 29.3111L34.742 29.2656L34.6974 28.7882L34.5631 28.7431V28.5838L35.1228 28.6069C35.0783 28.3111 35.1453 28.1748 35.1453 28.1748H35.3021L35.3244 28.2888L36.0096 28.3534L36.4941 27.7976C36.4697 27.7552 36.5427 27.7293 36.4895 27.6748C36.4222 27.6066 36.3324 27.6748 36.2199 27.6066C36.1083 27.5388 36.2199 27.1521 36.1978 27.0613C36.1755 26.9704 36.5789 26.8336 36.5117 27.0386C36.4444 27.2433 36.5117 27.3341 36.5117 27.3341C36.8028 27.0613 37.0491 27.3566 37.0269 27.4249C37.004 27.4931 37.1834 27.5613 37.2952 27.4931C37.4074 27.4249 37.5417 27.6978 37.4969 27.8338C37.4518 27.9702 37.0491 27.9477 37.0269 27.8112C37.004 27.6747 36.9367 27.7204 36.8924 27.7886C36.8473 27.8569 36.6462 27.9021 36.534 27.8338C36.5113 27.82 36.5004 27.8085 36.4941 27.7976L36.0096 28.3534L36.041 28.3566C36.3096 28.5158 36.1755 28.7203 36.0861 28.7658C35.9962 28.8113 35.8394 28.8113 35.8394 28.8113L35.795 28.9023L35.2126 28.9475L35.1675 29.1751C34.8764 29.1291 34.7647 29.4477 34.8319 29.6066C34.8992 29.7654 34.8319 29.902 34.8319 29.902L35.0782 30.0159L35.3915 29.9252C35.4366 29.6976 35.6377 29.6521 35.8172 29.516C35.9961 29.3796 36.2876 29.7655 36.1977 29.9476C36.1082 30.1292 36.1082 30.1975 36.1082 30.1975L36.1303 30.4022L35.9066 30.493L35.7276 30.584L35.7048 30.6978H35.1003L34.9885 30.8112L34.6972 30.8345L34.6073 30.9706L34.4061 30.9934C34.4061 30.9934 34.0699 31.1526 34.2045 31.3344C34.3389 31.5164 33.6448 31.4936 33.4876 31.2434C33.4427 31.4704 33.1965 31.2661 33.1965 31.2661L32.9503 31.1977L32.928 30.8572C32.8831 30.6297 32.4576 30.6297 32.4801 30.7889C32.5024 30.9481 31.6735 30.8572 31.6735 30.8572L31.405 30.9877L31.1584 31.1299L31.1362 31.2434L30.7328 31.2889L30.5539 31.3799L30.4868 31.2435H30.3078L30.1284 31.4937C29.6582 31.5165 29.2104 31.7892 29.255 31.9029C29.2999 32.0163 29.0761 32.1305 29.0761 32.1305L28.8743 32.1979L28.7403 32.4027L28.4714 32.4938L28.4264 32.9713L28.2923 33.0619V33.2668L28.1352 33.3119V33.4257L27.9114 33.4484L28.0454 33.7895L28.2252 33.8806C28.5387 33.9257 28.4041 34.3125 28.4041 34.3125L28.5831 34.3349L28.673 34.5848L28.8519 34.9484C28.9192 35.2216 29.1208 35.1533 29.2104 35.1306C29.2999 35.1082 29.3893 35.4032 29.3893 35.4032L30.2849 35.426C30.2849 35.426 30.2405 35.5171 30.3972 35.5625C30.5538 35.6076 31.584 35.6535 31.6291 35.5853C31.584 35.3805 32.1886 35.335 32.4353 35.517C32.6813 35.6985 33.0175 35.5853 33.0175 35.5853L33.3533 35.994L33.5777 36.4942L33.9582 36.6077L34.2268 36.676L34.3167 37.0624L34.5179 37.0852L34.5852 37.3355C34.8318 37.5171 34.5179 37.9036 34.5179 37.9036V38.4035L34.6972 38.4945L34.6746 38.6766L34.9661 38.9716L35.3019 38.9948L36.1531 39.9038L36.8247 40.1082L36.9365 40.472L37.116 40.4492L37.2503 40.3357L37.7876 40.313L38.0566 40.0627L38.3477 40.0176L40.8336 37.9036L40.6093 37.7671V37.2673C41.0125 36.9719 41.0349 36.4488 40.6542 36.4034C40.3654 36.3689 40.4977 36.0624 40.7665 36.017L40.923 35.949V35.7442L41.4381 35.2672V34.9034L40.3186 33.9713C39.8257 33.7897 40.3186 32.6985 40.6542 32.7213C40.9904 32.7437 40.632 31.0394 40.632 31.0394L40.4526 30.9486L40.4977 30.4028H40.2514L39.8481 30.9259L39.7363 31.2893C39.6915 31.7671 38.3029 31.6757 38.2355 31.6074C38.1683 31.5392 37.6982 31.3348 37.6982 31.3348C37.6982 31.3348 37.3398 31.0394 37.2726 31.1304C37.2054 31.2215 36.8921 31.0165 36.8921 31.0849C36.8921 31.1531 36.601 30.926 36.601 30.926L36.1531 30.7667L36.4893 30.6984L36.422 30.4258L37.0038 30.7212C37.0711 30.8118 37.3622 30.7895 37.3622 30.7895L37.4517 30.9033C37.4517 30.9033 37.6311 30.8802 37.7434 31.0167C37.8552 31.1532 38.4373 31.0396 38.4373 31.0396L38.5941 31.1757L38.8403 31.2668L39.5348 31.2896L39.5571 30.858L39.6916 30.7215L39.6691 30.4485L39.8258 30.3123V30.0852L39.9603 30.0397L39.9825 29.5399L40.0943 29.517V28.4259L39.7585 28.1075C39.7363 28.2214 39.378 28.2214 39.378 28.2214C39.378 28.2214 39.2885 28.3803 39.2212 28.3803C39.1542 28.3803 39.3108 28.5847 39.2659 28.7212C39.2212 28.8574 39.0419 28.8574 39.0419 28.8574L38.7057 28.9486L38.6162 29.0623H38.2578L38.2134 28.7669L38.6161 28.653L38.8401 28.5397L38.9523 28.312C38.9745 28.0851 39.2434 28.1075 39.2434 28.1075C39.2434 28.1075 39.7585 27.6756 39.7807 27.4714C39.8035 27.2667 39.9825 26.6985 40.2959 26.6985H40.8783C41.1021 26.6073 41.035 26.312 41.035 26.312L41.3262 26.2668L41.371 26.4258C41.371 26.4258 41.7743 26.4713 41.8189 26.403C41.8639 26.3351 41.9533 26.1757 42.0655 26.2439C42.1774 26.3121 42.5358 26.0848 42.5358 26.0848C42.558 25.9257 43.118 25.9939 43.118 25.9939L43.1853 25.7894C43.1853 25.7894 42.8047 25.2667 42.7375 25.2667C42.6701 25.2667 42.3119 24.9482 42.2669 25.062C41.909 24.9711 41.9312 24.471 41.9312 24.471L41.7967 24.1529C41.7967 23.9708 41.4612 23.5845 41.3935 23.6302C41.0574 23.3802 41.304 23.0846 41.3935 23.0619C41.483 23.0393 41.7073 22.7209 41.7073 22.7209L41.8191 22.4027L42.1998 22.2893L42.2447 21.9938L42.0435 21.971C42.0435 21.971 42.267 21.5618 42.3792 21.5618C42.4914 21.5618 43.2305 21.5618 43.2972 21.5161C43.3644 21.4709 43.4987 21.1073 43.4987 21.039C43.4987 20.9708 43.6783 20.948 43.745 20.9252C43.8123 20.9027 43.969 20.7208 44.0139 20.6297C44.0587 20.5382 43.9023 19.9699 43.8125 20.0608L43.8126 20.0608Z" fill="#D69D36"/>
<path d="M31.4058 28.2549C31.4393 28.2213 31.4731 28.3573 31.5402 28.3403C31.607 28.3233 31.6409 28.4597 31.5739 28.4597C31.5066 28.4597 31.5066 28.5451 31.5066 28.5792C31.5066 28.6133 31.5066 28.6983 31.456 28.7495C31.4057 28.8007 31.3551 28.7665 31.2878 28.7325C31.2208 28.6984 31.1875 28.6984 31.1032 28.6984C31.0194 28.6984 31.0862 28.8349 31.0862 28.8349C31.0862 28.8349 30.7334 28.8178 30.8008 28.7665C30.868 28.7158 30.9353 28.6983 30.885 28.6641C30.8345 28.6301 30.885 28.5962 30.885 28.528C30.885 28.4596 31.053 28.4939 31.0023 28.4426C30.9522 28.3914 31.0034 28.1937 31.0862 28.3061L31.1368 28.1866C31.0862 28.1356 31.1202 28.1183 31.0194 28.0848C30.9187 28.0506 31.0023 27.8459 31.0023 27.8459L31.0194 27.7096C31.0529 27.5395 31.3887 27.5221 31.4057 27.6754C31.4223 27.8289 31.4057 27.9312 31.4057 27.9312L31.5066 27.9651C31.5066 27.9651 31.4896 28.068 31.4057 28.068C31.3213 28.068 31.4057 28.1184 31.3551 28.1699L31.4058 28.2549L31.4058 28.2549Z" fill="#D69D36"/>
<path d="M30.2969 28.4258C30.3474 28.3234 30.4648 27.8802 30.5994 28.0167C30.7333 28.1531 30.8175 28.0167 30.8175 28.0167C30.8175 28.0167 30.8848 28.0851 30.8511 28.2214C30.8175 28.3576 30.7838 28.4942 30.6995 28.5112C30.6158 28.5282 30.5485 28.5794 30.4482 28.5965C30.3475 28.6136 30.2969 28.4258 30.2969 28.4258L30.2969 28.4258Z" fill="#D69D36"/>
</svg>
