<svg width="187" height="85" viewBox="0 0 187 85" fill="none" xmlns="http://www.w3.org/2000/svg">
<path fill-rule="evenodd" clip-rule="evenodd" d="M83.1013 66.5769H83.8726V70.9033H83.1013V66.5769ZM91.8197 66.5769H92.8421L94.9421 69.7911H94.9543V66.5769H95.7255V70.9033H94.7461L92.6036 67.5852H92.591V70.9033H91.8197V66.5769ZM103.673 66.5769H104.444V70.9033H103.673V66.5769ZM113.279 67.2735H111.951V66.5769H115.379V67.2735H114.05V70.9033H113.279V67.2735ZM122.885 66.5769H123.657V70.9033H122.885V66.5769ZM133.005 66.5769H133.673L135.54 70.9033H134.659L134.255 69.9134H132.375L131.983 70.9033H131.12L133.005 66.5769ZM133.985 69.2534L133.318 67.4935L132.638 69.2534H133.985ZM143.346 67.2735H142.018V66.5769H145.446V67.2735H144.118V70.9033H143.346V67.2735ZM152.953 66.5769H153.724V70.9033H152.953V66.5769ZM161.169 66.5769H162.057L163.239 69.8461L164.457 66.5769H165.289L163.538 70.9033H162.871L161.169 66.5769ZM172.753 66.5769H175.624V67.2735H173.524V68.3368H175.514V69.0334H173.524V70.2066H175.734V70.9033H172.753V66.5769Z" fill="#1D9191"/>
<path fill-rule="evenodd" clip-rule="evenodd" d="M87.9382 36.0616C91.4689 36.0616 93.6237 34.1958 93.6237 31.2675C93.6237 29.324 92.6112 28.2615 90.3526 26.9399L87.1593 25.0482C85.3421 23.9598 84.3296 23.2083 84.3296 21.7053C84.3296 20.1245 85.7315 19.1139 87.3411 19.1139C90.1968 19.1139 91.8064 20.4873 92.4035 24.0116H92.9487V21.1611C92.9487 19.1916 89.9112 18.0514 87.2632 18.0514C84.1219 18.0514 82.019 19.7876 82.019 22.4568C82.019 24.4003 82.8758 25.6442 85.1084 26.9658L88.3016 28.8575C90.1449 29.9459 91.1054 30.8788 91.1054 32.3819C91.1054 34.0922 89.5737 34.9992 87.7564 34.9992C84.8228 34.9992 83.1354 33.5998 82.5642 30.0755H82.019V32.926C82.019 34.8696 85.1084 36.0616 87.9382 36.0616Z" fill="#383838"/>
<path fill-rule="evenodd" clip-rule="evenodd" d="M100.27 35.8803C102.035 35.8803 102.97 35.2843 103.541 34.8178L103.255 34.2477C102.762 34.5328 102.191 34.8178 101.282 34.8178C100.166 34.8178 99.5946 34.0922 99.5946 32.4337V24.504H102.632V23.4415H99.5946V19.5544H98.2706L96.9725 21.1093V23.4415H95.2332V24.504H96.9725V32.4078C96.9725 34.7919 98.2966 35.8803 100.27 35.8803Z" fill="#383838"/>
<path d="M108.448 35.8803C110.317 35.8803 111.433 35.1287 111.952 34.455H112.082L112.991 35.6211H114.522V28.6243C114.522 24.2189 112.394 23.1824 109.772 23.1824C108.188 23.1824 106.526 23.4156 105.877 24.0894C105.228 24.7631 105.228 25.5924 105.228 26.4994H106.475C106.864 24.7372 107.876 24.2448 109.252 24.2448C110.81 24.2448 111.9 25.1 111.9 28.5984H111.225C107.201 28.5984 104.501 29.5572 104.501 32.2782C104.501 34.9214 106.63 35.8803 108.448 35.8803ZM109.512 34.6882C108.292 34.6882 107.253 33.9108 107.253 32.2782C107.253 30.6456 108.655 29.6609 111.225 29.6609H111.9V33.0815C111.459 33.8849 110.758 34.6882 109.512 34.6882Z" fill="#383838"/>
<path fill-rule="evenodd" clip-rule="evenodd" d="M118.365 35.6211H120.987V25.5665C121.584 24.9445 122.441 24.3744 123.479 24.3744C124.907 24.3744 126.231 25.3073 126.231 27.8728V35.6211H128.827V27.8728C128.827 24.2189 126.75 23.1824 124.284 23.1824C122.571 23.1824 121.376 23.8821 120.701 24.4522C120.39 23.8043 119.793 23.4415 118.495 23.4415H116.106V24.0375H116.548C118.105 24.0375 118.365 25.0741 118.365 26.6289V35.6211Z" fill="#383838"/>
<path d="M136.511 35.8802C138.458 35.8802 139.341 35.1287 139.886 34.4549H140.016L140.925 35.6211H142.456V21.7052C142.456 19.1138 141.937 18.5178 140.12 18.5178H137.576V19.1138H138.043C139.601 19.1138 139.86 20.1504 139.86 21.7052V23.9598C139.107 23.5711 138.121 23.1823 136.745 23.1823C133.266 23.1823 131.631 26.007 131.631 29.5313C131.631 33.0556 133.24 35.8802 136.511 35.8802ZM137.238 34.8177C135.213 34.8177 134.382 32.5114 134.382 29.5313C134.382 26.5512 135.213 24.2448 137.446 24.2448C138.303 24.2448 139.133 24.6594 139.86 25.0222V33.2111C139.341 33.9626 138.718 34.8177 137.238 34.8177Z" fill="#383838"/>
<path fill-rule="evenodd" clip-rule="evenodd" d="M157.228 35.6211H159.824V19.5803H165.562V18.5178H153.464C151.672 18.5178 151.257 19.5544 151.257 20.5909V22.6122H151.828C151.828 20.4614 152.996 19.5803 155.021 19.5803H157.228V35.6211Z" fill="#383838"/>
<path d="M170.651 35.8803C166.964 35.8803 164.809 33.0556 164.809 29.5313C164.809 26.007 166.964 23.1824 170.651 23.1824C174.337 23.1824 176.492 26.007 176.492 29.5313C176.492 33.0556 174.337 35.8803 170.651 35.8803ZM170.651 34.8178C172.572 34.8178 173.766 32.5114 173.766 29.5313C173.766 26.5512 172.572 24.2448 170.651 24.2448C168.729 24.2448 167.535 26.5512 167.535 29.5313C167.535 32.5114 168.729 34.8178 170.651 34.8178Z" fill="#383838"/>
<path fill-rule="evenodd" clip-rule="evenodd" d="M83.111 58.1627H91.4565C92.4997 58.1627 93.0213 57.6658 93.3058 56.8611L94.0882 54.7075L93.5666 54.5655C92.8079 56.4825 91.6699 57.1924 89.6309 57.1924H85.5056V50.5897H91.8358V49.6194H85.5056V43.5136H89.7495C91.6462 43.5136 92.7131 44.3419 92.7131 46.2825H93.2584V44.4366C93.2584 43.49 92.879 42.5433 91.2431 42.5433H81.0483V43.0876H81.4514C82.8739 43.0876 83.111 44.0343 83.111 45.4542V58.1627Z" fill="#383838"/>
<path fill-rule="evenodd" clip-rule="evenodd" d="M96.7436 58.1628H99.1382V48.9805C99.6835 48.4125 100.466 47.8918 101.414 47.8918C102.718 47.8918 103.927 48.7438 103.927 51.0867V58.1628H106.298V51.0867C106.298 47.7499 104.402 46.8032 102.149 46.8032C100.584 46.8032 99.4938 47.4422 98.8774 47.9628C98.5929 47.3712 98.0476 47.0399 96.8621 47.0399H94.6809V47.5842H95.084C96.5065 47.5842 96.7436 48.5308 96.7436 49.9508V58.1628Z" fill="#383838"/>
<path d="M113.316 58.3994C115.094 58.3994 115.9 57.7131 116.398 57.0978H116.517L117.346 58.1628H118.745V45.4542C118.745 43.0876 118.271 42.5433 116.611 42.5433H114.288V43.0876H114.715C116.137 43.0876 116.374 44.0343 116.374 45.4542V47.5132C115.687 47.1582 114.786 46.8032 113.529 46.8032C110.352 46.8032 108.859 49.3827 108.859 52.6013C108.859 55.8198 110.329 58.3994 113.316 58.3994ZM113.98 57.4291C112.13 57.4291 111.372 55.3229 111.372 52.6013C111.372 49.8797 112.13 47.7735 114.169 47.7735C114.952 47.7735 115.71 48.1521 116.374 48.4834V55.9618C115.9 56.6481 115.331 57.4291 113.98 57.4291Z" fill="#383838"/>
<path d="M139.325 58.3994C139.941 58.3994 140.557 58.2811 140.818 58.1628V57.6658C139.751 57.5474 138.898 56.9795 137.689 54.9679L135.199 50.8264C137.001 50.4004 138.993 49.4537 138.993 46.8032C138.993 43.0167 134.986 42.5433 132.947 42.5433H126.688V43.0876H127.091C128.513 43.0876 128.75 44.0343 128.75 45.4542V58.1628H131.145V50.9684H132.615L134.986 54.9679C136.527 57.5474 137.665 58.3994 139.325 58.3994ZM131.145 50.0927V43.632C131.69 43.49 132.354 43.3953 132.781 43.3953C134.203 43.3953 136.385 44.3183 136.385 46.7558C136.385 49.2171 134.203 50.0927 132.781 50.0927H131.145Z" fill="#383838"/>
<path d="M144.991 58.3995C146.698 58.3995 147.717 57.7131 148.192 57.0978H148.31L149.14 58.1628H150.539V51.773C150.539 47.7499 148.595 46.8032 146.2 46.8032C144.754 46.8032 143.237 47.0162 142.644 47.6315C142.051 48.2468 142.051 49.0041 142.051 49.8324H143.189C143.545 48.2232 144.469 47.7735 145.726 47.7735C147.148 47.7735 148.144 48.5545 148.144 51.7494H147.528C143.853 51.7494 141.387 52.625 141.387 55.1099C141.387 57.5238 143.331 58.3995 144.991 58.3995ZM145.963 57.3108C144.849 57.3108 143.9 56.6009 143.9 55.1099C143.9 53.619 145.181 52.7197 147.528 52.7197H148.144V55.8435C147.741 56.5772 147.101 57.3108 145.963 57.3108Z" fill="#383838"/>
<path d="M154.048 62.6593H156.442V57.6895C157.106 58.0445 158.031 58.3995 159.264 58.3995C162.441 58.3995 163.934 55.8199 163.934 52.6013C163.934 49.3828 162.441 46.8032 159.477 46.8032C157.817 46.8032 156.798 47.5132 156.182 48.0812C155.897 47.3475 155.352 47.0399 154.166 47.0399H151.985V47.5842H152.388C153.811 47.5842 154.048 48.5308 154.048 49.9508V62.6593ZM158.624 57.4292C157.865 57.4292 157.083 57.0505 156.442 56.7192V49.0515C156.869 48.4125 157.58 47.7735 158.837 47.7735C160.663 47.7735 161.421 49.8798 161.421 52.6013C161.421 55.3229 160.663 57.4292 158.624 57.4292Z" fill="#383838"/>
<path d="M171.094 58.3995C167.775 58.3995 165.997 55.8199 165.997 52.6013C165.997 49.2408 167.894 46.8032 170.857 46.8032C174.01 46.8032 175.717 48.6728 175.717 51.8914L175.67 52.98H168.486C168.486 55.7016 169.648 57.4292 171.545 57.4292C173.109 57.4292 174.058 56.6955 174.888 55.5122L175.409 55.9145C174.461 57.5238 173.109 58.3995 171.094 58.3995ZM168.486 51.986H173.228C173.228 49.1461 172.422 47.7735 170.857 47.7735C169.529 47.7735 168.486 49.3591 168.486 51.986Z" fill="#383838"/>
<path fill-rule="evenodd" clip-rule="evenodd" d="M41.8224 28.1579C44.3199 22.2491 50.0738 18.1457 56.1302 18.1205C64.1239 18.0872 71.8619 25.7539 72.671 34.8512C72.671 34.8512 73.1082 37.1094 72.1464 41.175C70.8369 46.712 67.7589 51.6312 63.6093 55.3855C55.6789 62.7421 46.9588 67.0751 43.0287 70.5751C42.2045 71.309 43.3005 35.943 41.4372 35.9636C40.0761 35.9786 40.8923 71.0363 40.3835 70.5751C36.3884 66.9561 28.2186 62.6225 20.2284 55.3843C16.0787 51.6312 13.0008 46.7107 11.6914 41.1737C10.7298 37.1082 11.1666 34.8499 11.1666 34.8499C11.976 25.7526 18.4141 18.1193 27.3534 18.1193C33.9907 18.1193 39.3248 22.2491 41.8224 28.1579Z" fill="url(#paint0_linear_7_56)"/>
<path fill-rule="evenodd" clip-rule="evenodd" d="M32.869 31.9571C28.2312 31.1087 24.7154 29.7053 21.8209 22.7061C21.769 22.5813 21.8087 22.4372 21.9173 22.3564C22.0258 22.2756 22.1754 22.2787 22.2805 22.364C22.5617 22.5874 22.9018 22.8456 23.2902 23.1181C27.8349 26.2983 36.3057 28.5127 41.7654 28.5156C47.2246 28.5127 55.5776 26.2983 60.1274 23.1131C60.4673 22.8749 60.7635 22.6472 61.0124 22.4442C61.1167 22.3565 61.2674 22.3515 61.3771 22.432C61.4871 22.5125 61.5278 22.6577 61.4752 22.7832C58.5947 29.7157 55.1639 31.1118 50.5433 31.9571C48.8072 32.2747 45.7111 33.7867 45.8115 35.5917C46.3901 46.0114 45.5752 58.3793 43.4987 66.4835C43.4039 66.8559 43.0471 67.1008 42.6646 67.0558C42.2819 67.0112 41.9919 66.69 41.9864 66.3056C41.8765 58.7739 41.6955 46.2274 41.6955 46.2274C41.6955 46.2274 41.4858 58.792 41.3602 66.322C41.3538 66.7067 41.0628 67.0275 40.6796 67.0721C40.2965 67.1162 39.9397 66.8704 39.8452 66.4971C37.79 58.3932 36.1575 45.7377 36.7363 35.3121C36.8367 33.5071 34.6052 32.2747 32.869 31.9571Z" fill="url(#paint1_linear_7_56)"/>
<path fill-rule="evenodd" clip-rule="evenodd" d="M40.1356 70.3323C40.0347 70.2322 34.732 44.9803 35.3427 33.9771C35.4501 32.051 34.1206 30.3899 32.2689 30.0482C27.3073 29.1411 23.5501 27.6391 20.4579 20.1112C20.4066 19.9875 20.4467 19.8462 20.5553 19.7637C20.6645 19.6812 20.8144 19.6871 20.9188 19.7696C21.2298 20.0229 21.6128 20.3115 22.0542 20.6237C26.9007 24.0165 35.8709 25.495 41.6934 25.5009C47.5148 25.495 56.4856 24.0165 61.3374 20.6178C61.7275 20.3468 62.0632 20.0818 62.3406 19.8579C62.4445 19.7696 62.5955 19.7637 62.7059 19.8403C62.8162 19.9227 62.8569 20.07 62.805 20.1937C59.727 27.6509 56.0607 29.147 51.1168 30.0482C49.2657 30.3899 47.9356 32.051 48.043 33.9771C48.6655 45.1923 43.2985 70.3323 43.1522 70.4324C42.8058 70.8624 42.2759 71.1334 41.6828 71.1334C41.0431 71.1334 40.4772 70.8153 40.1356 70.3323Z" fill="#F16370"/>
<g filter="url(#filter0_d_7_56)">
<path d="M46.9417 18.7999C46.9417 21.6309 44.6651 23.9394 41.8736 23.9394C39.0825 23.9394 36.8062 21.6309 36.8062 18.7999C36.8062 15.9693 39.0825 13.6604 41.8736 13.6604C42.9891 13.6604 44.0224 14.0291 44.861 14.6524C46.121 15.589 46.9417 17.1004 46.9417 18.7999Z" fill="black"/>
</g>
<path d="M46.9417 18.7999C46.9417 21.6309 44.6651 23.9394 41.8736 23.9394C39.0825 23.9394 36.8062 21.6309 36.8062 18.7999C36.8062 15.9693 39.0825 13.6604 41.8736 13.6604C42.9891 13.6604 44.0224 14.0291 44.861 14.6524C46.121 15.589 46.9417 17.1004 46.9417 18.7999Z" fill="#F16370"/>
<defs>
<filter id="filter0_d_7_56" x="32.8062" y="12.6604" width="18.1355" height="18.2789" filterUnits="userSpaceOnUse" color-interpolation-filters="sRGB">
<feFlood flood-opacity="0" result="BackgroundImageFix"/>
<feColorMatrix in="SourceAlpha" type="matrix" values="0 0 0 0 0 0 0 0 0 0 0 0 0 0 0 0 0 0 127 0" result="hardAlpha"/>
<feOffset dy="3"/>
<feGaussianBlur stdDeviation="2"/>
<feColorMatrix type="matrix" values="0 0 0 0 0.843137 0 0 0 0 0.282353 0 0 0 0 0.341176 0 0 0 1 0"/>
<feBlend mode="normal" in2="BackgroundImageFix" result="effect1_dropShadow_7_56"/>
<feBlend mode="normal" in="SourceGraphic" in2="effect1_dropShadow_7_56" result="shape"/>
</filter>
<linearGradient id="paint0_linear_7_56" x1="42.4217" y1="25.6475" x2="42.1221" y2="95.2555" gradientUnits="userSpaceOnUse">
<stop stop-color="#04CFCF"/>
<stop offset="1" stop-color="#369897"/>
</linearGradient>
<linearGradient id="paint1_linear_7_56" x1="59.3396" y1="30.5019" x2="23.4082" y2="30.3831" gradientUnits="userSpaceOnUse">
<stop stop-color="#D54251"/>
<stop offset="0.5" stop-color="#DA4F60"/>
<stop offset="1" stop-color="#D54251"/>
</linearGradient>
</defs>
</svg>
